M48
;DRILL file {KiCad 4.0.3-stable} date 08/23/16 23:24:36
;FORMAT={-:-/ absolute / metric / decimal}
FMAT,2
METRIC,TZ
T1C0.300
T2C0.500
T3C0.600
T4C0.700
T5C0.800
T6C0.900
T7C1.000
T8C1.016
T9C1.500
T10C1.501
T11C2.300
%
G90
G05
M71
T1
X13.58Y-12.625
X18.66Y-11.355
X18.66Y-13.895
X21.835Y-17.07
X21.835Y-66.6
X21.835Y-71.68
X21.835Y-78.665
X21.835Y-84.38
X23.105Y-66.6
X23.105Y-78.665
X24.375Y-19.61
X24.375Y-30.405
X25.645Y-29.135
X27.55Y-63.425
X28.82Y-48.82
X29.455Y-50.725
X30.09Y-52.63
X30.725Y-54.535
X31.36Y-22.15
X32.63Y-16.435
X32.63Y-22.15
X33.265Y-37.39
X33.265Y-59.615
X33.9Y-76.76
X35.17Y-22.15
X35.17Y-63.425
X35.17Y-77.395
X35.17Y-83.745
X35.805Y-18.34
X35.805Y-27.865
X37.075Y-17.705
X37.075Y-86.285
X37.71Y-26.595
X37.71Y-40.565
X37.71Y-51.995
X37.71Y-59.615
X37.71Y-63.425
X38.98Y-18.34
X39.615Y-38.66
X39.615Y-93.27
X40.25Y-37.39
X40.25Y-59.615
X40.25Y-63.425
X40.25Y-92.635
X40.885Y-41.2
X40.885Y-90.095
X41.52Y-40.565
X41.52Y-41.835
X41.52Y-77.395
X41.52Y-79.935
X41.52Y-82.475
X41.52Y-85.015
X41.52Y-89.46
X42.79Y-59.615
X44.695Y-14.53
X44.695Y-23.42
X44.695Y-44.375
X45.33Y-61.52
X45.965Y-18.34
X47.235Y-28.5
X47.235Y-37.39
X47.235Y-75.49
X47.235Y-77.395
X47.235Y-83.745
X47.87Y-39.93
X47.87Y-63.425
X49.14Y-61.52
X49.775Y-86.285
X50.41Y-27.23
X50.41Y-53.9
X50.41Y-63.425
X51.045Y-41.2
X51.68Y-48.82
X52.315Y-10.085
X52.315Y-14.53
X52.315Y-21.515
X53.585Y-18.34
X53.585Y-91.365
X54.22Y-93.905
X54.855Y-92.
X55.49Y-90.73
X58.03Y-43.74
X58.665Y-27.865
X59.3Y-41.835
X59.935Y-21.515
X60.57Y-11.355
X61.84Y-41.2
X61.84Y-55.805
X61.84Y-58.345
X61.84Y-60.885
X62.475Y-79.935
X63.11Y-51.995
X63.11Y-81.84
X63.11Y-86.285
X64.38Y-20.245
X64.38Y-39.93
X64.38Y-45.645
X65.015Y-48.82
X65.65Y-29.77
X65.65Y-72.95
X66.285Y-7.545
X66.285Y-11.355
X67.555Y-41.2
X67.555Y-93.905
X69.Y-29.
X69.46Y-53.9
X69.46Y-55.805
X69.46Y-61.52
X69.46Y-81.84
X69.46Y-86.285
X69.46Y-88.19
X70.095Y-79.935
X70.095Y-92.
X70.73Y-50.725
X70.73Y-53.265
X70.73Y-57.075
X71.365Y-57.71
X71.365Y-66.6
X72.Y-39.295
X72.Y-45.645
X72.Y-70.41
X72.635Y-50.725
X72.635Y-91.365
X73.27Y-50.09
X73.27Y-72.95
X73.905Y-29.77
X73.905Y-58.98
X73.905Y-73.585
X73.905Y-90.73
X74.54Y-39.295
X74.54Y-43.74
X74.54Y-71.045
X75.175Y-45.645
X76.064Y-46.661
X76.445Y-44.375
X76.445Y-65.33
X78.35Y-38.025
X79.62Y-49.455
X80.255Y-50.09
X80.89Y-34.85
X80.89Y-50.725
X80.89Y-55.805
X80.89Y-62.79
X80.89Y-70.41
X81.525Y-41.2
X81.525Y-45.645
X82.16Y-39.295
X82.16Y-55.805
X82.16Y-57.075
X82.795Y-45.645
X83.43Y-39.295
X83.43Y-45.01
X83.43Y-54.535
X83.43Y-55.805
X83.43Y-70.41
X84.065Y-76.125
X84.7Y-38.025
X84.7Y-40.565
X84.7Y-55.17
X84.7Y-57.075
X84.7Y-62.155
X85.335Y-54.535
X85.335Y-76.76
X85.97Y-53.9
X85.97Y-60.885
X86.605Y-41.2
X86.605Y-72.315
X87.24Y-45.01
X87.24Y-53.9
X87.24Y-60.885
X87.24Y-70.41
X87.875Y-54.535
X88.51Y-16.435
X88.51Y-37.39
X88.51Y-45.01
X89.145Y-27.865
X89.145Y-30.405
X89.145Y-46.915
X89.145Y-57.075
X89.462Y-19.117
X89.462Y-24.197
X89.78Y-34.85
X89.78Y-51.995
X89.78Y-55.805
X89.78Y-61.52
X89.78Y-62.79
X89.78Y-70.41
X90.415Y-34.215
X91.05Y-45.01
X91.05Y-57.075
X91.685Y-50.725
X92.32Y-55.805
X92.32Y-70.41
X92.955Y-60.885
X93.59Y-24.055
X93.59Y-34.215
X93.59Y-58.345
X94.86Y-18.975
X94.86Y-22.785
X94.86Y-29.135
X94.86Y-70.41
X96.13Y-16.435
X96.13Y-55.17
X96.765Y-45.645
X97.4Y-50.725
X97.4Y-70.41
X98.67Y-57.71
X99.305Y-51.36
X99.305Y-64.695
X99.305Y-81.84
X99.94Y-53.265
X99.94Y-74.855
X104.385Y-47.55
X105.02Y-36.755
X105.02Y-55.805
X105.655Y-45.01
X105.655Y-46.28
X106.29Y-55.805
X106.925Y-55.17
X107.56Y-50.09
X107.56Y-74.855
X108.195Y-53.265
X108.195Y-64.06
X108.83Y-46.915
X109.465Y-62.79
X110.1Y-76.76
X111.37Y-48.185
X111.37Y-83.11
X125.975Y-31.04
X125.975Y-38.66
X125.975Y-70.41
X125.975Y-78.03
X127.88Y-34.215
X127.88Y-70.41
X128.515Y-48.82
X128.515Y-72.315
X129.15Y-34.215
X129.785Y-34.85
X129.785Y-51.36
X129.785Y-74.22
X131.055Y-52.63
X141.215Y-36.12
X141.85Y-76.125
X143.755Y-26.595
X143.755Y-43.105
X143.755Y-65.965
X143.755Y-82.475
X148.2Y-19.61
X150.105Y-38.025
X150.105Y-57.075
X150.105Y-77.395
X152.645Y-91.365
X153.915Y-51.995
T2
X133.595Y-31.675
X133.595Y-71.045
X134.865Y-39.295
X134.865Y-78.665
X138.675Y-26.595
X138.675Y-43.105
X138.675Y-65.965
X138.675Y-82.475
X141.215Y-31.675
X141.215Y-38.66
X141.215Y-71.045
X141.215Y-78.03
X148.835Y-91.365
X150.105Y-35.485
X150.105Y-51.995
X150.105Y-74.855
X152.01Y-19.61
X153.915Y-57.075
T3
X93.59Y-41.835
T4
X17.455Y-25.325
X17.455Y-27.865
X17.455Y-30.405
X17.455Y-32.945
X19.995Y-26.595
X19.995Y-29.135
X19.995Y-31.675
X19.995Y-34.215
T5
X85.97Y-6.275
X85.97Y-8.775
X100.575Y-92.04
X100.575Y-94.54
T6
X2.215Y-23.33
X2.215Y-25.87
X2.215Y-33.67
X2.215Y-36.21
X8.416Y-11.375
X8.416Y-13.875
X10.416Y-11.375
X10.416Y-13.875
X12.31Y-45.01
X12.31Y-47.55
X12.31Y-50.09
X12.31Y-65.33
X12.31Y-67.87
X12.31Y-79.935
X12.31Y-82.475
X14.85Y-43.74
X14.85Y-46.28
X14.85Y-48.82
X14.85Y-66.6
X14.85Y-69.14
X14.85Y-81.205
X14.85Y-83.745
X18.025Y-95.175
X20.565Y-95.175
X23.105Y-95.175
X25.645Y-95.175
X38.965Y-44.36
X38.965Y-45.66
X40.265Y-44.36
X40.265Y-45.66
X42.79Y-38.025
X45.33Y-38.025
X45.33Y-49.455
X45.33Y-51.995
X47.87Y-41.835
X51.68Y-46.915
X51.68Y-51.995
X58.03Y-49.455
X60.57Y-46.915
X60.57Y-49.455
X63.11Y-49.455
X67.555Y-95.175
X70.095Y-95.175
X72.635Y-95.175
X73.27Y-46.915
X75.175Y-95.175
X96.13Y-71.68
X96.13Y-74.22
X101.21Y-24.055
X101.21Y-26.595
X101.21Y-29.135
X101.21Y-31.675
X101.21Y-34.215
X101.21Y-36.755
X101.21Y-39.295
X101.21Y-41.835
X101.845Y-58.345
X104.385Y-58.345
X106.925Y-58.345
X111.37Y-53.9
X111.37Y-56.44
X112.64Y-9.8
X112.64Y-30.3
X112.64Y-66.6
X112.64Y-69.14
X112.64Y-71.68
X134.75Y-33.45
X134.75Y-34.85
X134.75Y-36.25
X134.75Y-72.82
X134.75Y-74.22
X134.75Y-75.62
X136.25Y-33.45
X136.25Y-34.85
X136.25Y-36.25
X136.25Y-72.82
X136.25Y-74.22
X136.25Y-75.62
T7
X25.645Y-42.47
X25.645Y-45.01
X25.645Y-52.63
X25.645Y-57.71
X76.445Y-8.18
X76.445Y-10.72
X76.445Y-13.26
X85.335Y-86.92
X85.335Y-89.46
X85.335Y-92.
X127.245Y-8.18
X127.245Y-10.72
X127.245Y-13.26
X136.77Y-18.34
X136.85Y-53.9
X136.85Y-90.73
X141.77Y-18.34
X141.85Y-53.9
X141.85Y-90.73
T8
X14.215Y-7.545
X16.755Y-7.545
X23.74Y-10.72
X23.74Y-13.26
X27.55Y-10.72
X27.55Y-13.26
X31.995Y-7.545
X34.535Y-7.545
X37.075Y-7.545
X39.615Y-7.545
X42.155Y-7.545
X47.235Y-7.545
X49.775Y-7.545
X51.68Y-31.675
X51.68Y-34.215
X52.315Y-7.545
X54.22Y-31.675
X54.22Y-34.215
X54.855Y-7.545
X56.76Y-31.675
X56.76Y-34.215
X57.395Y-7.545
X58.Y-63.14
X58.Y-65.68
X58.Y-68.22
X58.Y-70.76
X58.Y-73.3
X58.Y-75.84
X58.Y-78.38
X58.Y-80.92
X58.Y-83.46
X58.Y-86.
X59.3Y-31.675
X59.3Y-34.215
X61.84Y-31.675
X61.84Y-34.215
X64.38Y-31.675
X64.38Y-34.215
X66.92Y-31.675
X66.92Y-34.215
X69.46Y-31.675
X69.46Y-34.215
X72.Y-31.675
X72.Y-34.215
X74.54Y-31.675
X74.54Y-34.215
X78.35Y-31.675
X78.35Y-34.215
X81.525Y-19.61
X81.525Y-22.15
X84.065Y-19.61
X84.065Y-22.15
X115.18Y-38.66
X115.18Y-41.2
X115.18Y-43.74
X115.18Y-46.28
X115.18Y-48.82
X115.18Y-51.36
X115.18Y-53.9
X115.18Y-56.44
X115.18Y-58.98
X115.18Y-61.52
X117.72Y-38.66
X117.72Y-41.2
X117.72Y-43.74
X117.72Y-46.28
X117.72Y-48.82
X117.72Y-51.36
X117.72Y-53.9
X117.72Y-56.44
X117.72Y-58.98
X117.72Y-61.52
X156.455Y-12.625
X156.455Y-15.165
X156.455Y-17.705
X156.455Y-20.245
X156.455Y-22.785
X156.455Y-29.77
X156.455Y-32.31
X156.455Y-34.85
X156.455Y-37.39
X156.455Y-39.93
X156.455Y-69.14
X156.455Y-71.68
X156.455Y-74.22
X156.455Y-76.76
X156.455Y-79.3
T9
X10.295Y-22.02
X10.295Y-37.52
T10
X136.136Y-7.542
X151.376Y-7.542
T11
X5.706Y-6.605
X5.706Y-18.645
T0
M30
