%TF.GenerationSoftware,KiCad,Pcbnew,4.0.3-stable*%
%TF.CreationDate,2016-08-27T14:55:03+02:00*%
%TF.ProjectId,TEST4,54455354342E6B696361645F70636200,rev?*%
%TF.FileFunction,Copper,L4,Bot,Signal*%
%FSLAX46Y46*%
G04 Gerber Fmt 4.6, Leading zero omitted, Abs format (unit mm)*
G04 Created by KiCad (PCBNEW 4.0.3-stable) date 08/27/16 14:55:03*
%MOMM*%
%LPD*%
G01*
G04 APERTURE LIST*
%ADD10C,0.100000*%
%ADD11R,2.500000X1.500000*%
%ADD12O,2.500000X1.500000*%
%ADD13C,1.700000*%
%ADD14R,2.032000X1.727200*%
%ADD15O,2.032000X1.727200*%
%ADD16C,6.500000*%
%ADD17C,1.524000*%
%ADD18C,1.500000*%
%ADD19C,2.500000*%
%ADD20C,1.600000*%
%ADD21C,2.540000*%
%ADD22R,2.540000X2.540000*%
%ADD23R,2.032000X2.032000*%
%ADD24O,2.032000X2.032000*%
%ADD25R,2.000000X2.000000*%
%ADD26C,2.000000*%
%ADD27R,1.600000X1.600000*%
%ADD28R,1.727200X2.000000*%
%ADD29O,1.727200X2.000000*%
%ADD30R,1.727200X2.032000*%
%ADD31O,1.727200X2.032000*%
%ADD32R,2.000000X1.727200*%
%ADD33O,2.000000X1.727200*%
%ADD34C,1.900000*%
%ADD35C,1.800000*%
%ADD36O,2.500000X1.727200*%
%ADD37R,1.500000X1.500000*%
%ADD38C,4.000000*%
%ADD39R,1.300000X1.300000*%
%ADD40C,0.600000*%
%ADD41C,1.000000*%
%ADD42C,0.250000*%
%ADD43C,0.350000*%
%ADD44C,0.500000*%
%ADD45C,1.000000*%
%ADD46C,1.500000*%
%ADD47C,0.700000*%
G04 APERTURE END LIST*
D10*
X0Y-100000000D02*
X0Y0D01*
X160000000Y-100000000D02*
X0Y-100000000D01*
X160000000Y0D02*
X160000000Y-100000000D01*
X0Y0D02*
X160000000Y0D01*
D11*
X76445000Y-8180000D03*
D12*
X76445000Y-10720000D03*
X76445000Y-13260000D03*
D13*
X14850000Y-48820000D03*
X14850000Y-46280000D03*
X12310000Y-45010000D03*
X12310000Y-47550000D03*
X12310000Y-50090000D03*
X14850000Y-43740000D03*
X14850000Y-83745000D03*
X14850000Y-81205000D03*
X12310000Y-79935000D03*
X12310000Y-82475000D03*
X14850000Y-69140000D03*
X14850000Y-66600000D03*
X12310000Y-65330000D03*
X12310000Y-67870000D03*
D14*
X58000000Y-86000000D03*
D15*
X58000000Y-83460000D03*
X58000000Y-80920000D03*
X58000000Y-78380000D03*
X58000000Y-75840000D03*
X58000000Y-73300000D03*
X58000000Y-70760000D03*
X58000000Y-68220000D03*
X58000000Y-65680000D03*
X58000000Y-63140000D03*
D16*
X8000000Y-91000000D03*
X8000000Y-58000000D03*
D17*
X17455000Y-25325000D03*
D18*
X19995000Y-26595000D03*
X17455000Y-27865000D03*
X19995000Y-29135000D03*
X17455000Y-30405000D03*
X19995000Y-31675000D03*
X17455000Y-32945000D03*
D19*
X10295000Y-37520000D03*
X10295000Y-22020000D03*
D20*
X2215000Y-36210000D03*
X2215000Y-25870000D03*
X2215000Y-33670000D03*
X2215000Y-23330000D03*
D18*
X19995000Y-34215000D03*
D11*
X85335000Y-92000000D03*
D12*
X85335000Y-89460000D03*
X85335000Y-86920000D03*
D11*
X127245000Y-8180000D03*
D12*
X127245000Y-10720000D03*
X127245000Y-13260000D03*
D21*
X151376220Y-7542040D03*
D22*
X136136220Y-7542040D03*
D23*
X81525000Y-19610000D03*
D24*
X81525000Y-22150000D03*
D23*
X16755000Y-7545000D03*
D24*
X14215000Y-7545000D03*
D23*
X78350000Y-31675000D03*
D24*
X78350000Y-34215000D03*
D23*
X23740000Y-13260000D03*
D24*
X23740000Y-10720000D03*
D23*
X27550000Y-13260000D03*
D24*
X27550000Y-10720000D03*
D23*
X84065000Y-19610000D03*
D24*
X84065000Y-22150000D03*
D25*
X136770000Y-18340000D03*
D26*
X141770000Y-18340000D03*
D25*
X141850000Y-53900000D03*
D26*
X136850000Y-53900000D03*
D25*
X141850000Y-90730000D03*
D26*
X136850000Y-90730000D03*
D27*
X100575000Y-94540000D03*
D20*
X100575000Y-92040000D03*
D27*
X85970000Y-6275000D03*
D20*
X85970000Y-8775000D03*
D28*
X74540000Y-31675000D03*
D29*
X74540000Y-34215000D03*
X72000000Y-31675000D03*
X72000000Y-34215000D03*
X69460000Y-31675000D03*
X69460000Y-34215000D03*
X66920000Y-31675000D03*
X66920000Y-34215000D03*
X64380000Y-31675000D03*
X64380000Y-34215000D03*
X61840000Y-31675000D03*
X61840000Y-34215000D03*
X59300000Y-31675000D03*
X59300000Y-34215000D03*
X56760000Y-31675000D03*
X56760000Y-34215000D03*
X54220000Y-31675000D03*
X54220000Y-34215000D03*
X51680000Y-31675000D03*
X51680000Y-34215000D03*
D14*
X156455000Y-12625000D03*
D15*
X156455000Y-15165000D03*
X156455000Y-17705000D03*
X156455000Y-20245000D03*
X156455000Y-22785000D03*
D30*
X31995000Y-7545000D03*
D31*
X34535000Y-7545000D03*
X37075000Y-7545000D03*
X39615000Y-7545000D03*
X42155000Y-7545000D03*
D14*
X156455000Y-29770000D03*
D15*
X156455000Y-32310000D03*
X156455000Y-34850000D03*
X156455000Y-37390000D03*
X156455000Y-39930000D03*
D14*
X156455000Y-69140000D03*
D15*
X156455000Y-71680000D03*
X156455000Y-74220000D03*
X156455000Y-76760000D03*
X156455000Y-79300000D03*
D30*
X47235000Y-7545000D03*
D31*
X49775000Y-7545000D03*
X52315000Y-7545000D03*
X54855000Y-7545000D03*
X57395000Y-7545000D03*
D32*
X115180000Y-38660000D03*
D33*
X117720000Y-38660000D03*
X115180000Y-41200000D03*
X117720000Y-41200000D03*
X115180000Y-43740000D03*
X117720000Y-43740000D03*
X115180000Y-46280000D03*
X117720000Y-46280000D03*
X115180000Y-48820000D03*
X117720000Y-48820000D03*
X115180000Y-51360000D03*
X117720000Y-51360000D03*
X115180000Y-53900000D03*
X117720000Y-53900000D03*
X115180000Y-56440000D03*
X117720000Y-56440000D03*
X115180000Y-58980000D03*
X117720000Y-58980000D03*
X115180000Y-61520000D03*
X117720000Y-61520000D03*
D34*
X112640000Y-30300000D03*
X112640000Y-9800000D03*
D35*
X96130000Y-74220000D03*
X101210000Y-29135000D03*
X101210000Y-26595000D03*
X101210000Y-41835000D03*
X58030000Y-49455000D03*
X42790000Y-38025000D03*
X60570000Y-49455000D03*
X47870000Y-41835000D03*
X51680000Y-46915000D03*
X63110000Y-49455000D03*
X73270000Y-46915000D03*
X45330000Y-38025000D03*
X60570000Y-46915000D03*
X51680000Y-51995000D03*
X45330000Y-49455000D03*
X45330000Y-51995000D03*
X111370000Y-53900000D03*
X106925000Y-58345000D03*
X25645000Y-95175000D03*
X20565000Y-95175000D03*
X72635000Y-95175000D03*
X70095000Y-95175000D03*
X67555000Y-95175000D03*
X75175000Y-95175000D03*
X23105000Y-95175000D03*
X18025000Y-95175000D03*
X112640000Y-66600000D03*
X104385000Y-58345000D03*
X101845000Y-58345000D03*
X112640000Y-69140000D03*
X112640000Y-71680000D03*
X96130000Y-71680000D03*
X101210000Y-24055000D03*
X101210000Y-34215000D03*
X101210000Y-39295000D03*
X101210000Y-31675000D03*
X101210000Y-36755000D03*
X111370000Y-56440000D03*
D14*
X25645000Y-42470000D03*
D36*
X25645000Y-45010000D03*
X25645000Y-52630000D03*
X25645000Y-57710000D03*
D37*
X134750000Y-74220000D03*
X136250000Y-74220000D03*
X136250000Y-72820000D03*
X134750000Y-72820000D03*
X134750000Y-75620000D03*
X136250000Y-75620000D03*
X134750000Y-34850000D03*
X136250000Y-34850000D03*
X136250000Y-33450000D03*
X134750000Y-33450000D03*
X134750000Y-36250000D03*
X136250000Y-36250000D03*
D13*
X10416000Y-13875000D03*
X10416000Y-11375000D03*
X8416000Y-11375000D03*
X8416000Y-13875000D03*
D38*
X5706000Y-18645000D03*
X5706000Y-6605000D03*
D39*
X40265000Y-45660000D03*
X40265000Y-44360000D03*
X38965000Y-45660000D03*
X38965000Y-44360000D03*
D40*
X67555000Y-41200000D03*
X93590000Y-34215000D03*
X110100000Y-76760000D03*
X107560000Y-74855000D03*
X63110000Y-51995000D03*
X65015000Y-48820000D03*
X88510000Y-45010000D03*
X108195000Y-64060000D03*
X49140000Y-61520000D03*
X83430000Y-39295000D03*
X80890000Y-55805000D03*
X84700000Y-57075000D03*
X83430000Y-55805000D03*
X82160000Y-57075000D03*
X92320000Y-55805000D03*
X37710000Y-51995000D03*
X61840000Y-58345000D03*
X71365000Y-66600000D03*
X61840000Y-60885000D03*
X76445000Y-65330000D03*
X37710000Y-59615000D03*
X97400000Y-70410000D03*
X107560000Y-50090000D03*
X47235000Y-75490000D03*
X18660000Y-11355000D03*
X50410000Y-63425000D03*
X37710000Y-63425000D03*
X69460000Y-86285000D03*
X63110000Y-86285000D03*
X65650000Y-72950000D03*
X70095000Y-79935000D03*
X62475000Y-79935000D03*
X33900000Y-76760000D03*
X49775000Y-86285000D03*
X37075000Y-86285000D03*
X69000000Y-29000000D03*
X66285000Y-7545000D03*
X59300000Y-41835000D03*
X94860000Y-22785000D03*
X94860000Y-18975000D03*
X96130000Y-16435000D03*
X94860000Y-29135000D03*
X148200000Y-19610000D03*
X153915000Y-51995000D03*
X150105000Y-57075000D03*
X152645000Y-91365000D03*
X89462500Y-19117500D03*
X89462500Y-24197500D03*
X94860000Y-70410000D03*
X74540000Y-39295000D03*
X89780000Y-70410000D03*
X87240000Y-70410000D03*
X83430000Y-70410000D03*
X80890000Y-70410000D03*
X64380000Y-45645000D03*
X61840000Y-55805000D03*
X83430000Y-54535000D03*
X39615000Y-38660000D03*
X40250000Y-37390000D03*
X47235000Y-37390000D03*
X42790000Y-59615000D03*
X40250000Y-59615000D03*
X33265000Y-37390000D03*
X38980000Y-18340000D03*
X21835000Y-17070000D03*
X143755000Y-26595000D03*
X125975000Y-70410000D03*
X125975000Y-31040000D03*
X143755000Y-82475000D03*
X143755000Y-43105000D03*
X143755000Y-65965000D03*
X150105000Y-77395000D03*
X150105000Y-38025000D03*
X105020000Y-55805000D03*
X105020000Y-36755000D03*
X99940000Y-74855000D03*
X64380000Y-20245000D03*
X33265000Y-59615000D03*
X69460000Y-61520000D03*
X24375000Y-19610000D03*
X111370000Y-83110000D03*
X35170000Y-77395000D03*
X47235000Y-77395000D03*
X69460000Y-81840000D03*
X59935000Y-21515000D03*
X52315000Y-21515000D03*
X53585000Y-18340000D03*
X45965000Y-18340000D03*
X98670000Y-57710000D03*
X47235000Y-28500000D03*
X35805000Y-27865000D03*
X72000000Y-39295000D03*
X51045000Y-41200000D03*
X72000000Y-45645000D03*
X44695000Y-23420000D03*
X69460000Y-88190000D03*
X88510000Y-16435000D03*
X92320000Y-70410000D03*
X82160000Y-39295000D03*
X47235000Y-83745000D03*
X35170000Y-83745000D03*
X89780000Y-62790000D03*
X80890000Y-62790000D03*
X69460000Y-55805000D03*
X125975000Y-78030000D03*
X125975000Y-38660000D03*
X76445000Y-44375000D03*
X74540000Y-43740000D03*
D41*
X93590000Y-41835000D03*
D40*
X82160000Y-55805000D03*
X89145000Y-57075000D03*
X91685000Y-50725000D03*
X91050000Y-57075000D03*
D41*
X152010000Y-19610000D03*
X150105000Y-51995000D03*
X153915000Y-57075000D03*
X148835000Y-91365000D03*
X150105000Y-35485000D03*
X138675000Y-82475000D03*
X138675000Y-65965000D03*
X138675000Y-26595000D03*
X138675000Y-43105000D03*
X150105000Y-74855000D03*
D40*
X93590000Y-58345000D03*
X127880000Y-70410000D03*
X128515000Y-48820000D03*
X129150000Y-34215000D03*
X128515000Y-72315000D03*
X129785000Y-51360000D03*
X111370000Y-48185000D03*
X129785000Y-34850000D03*
X129785000Y-74220000D03*
X127880000Y-34215000D03*
X108195000Y-53265000D03*
X18660000Y-13895000D03*
X63110000Y-81840000D03*
X44695000Y-14530000D03*
X66285000Y-11355000D03*
X52315000Y-14530000D03*
X70730000Y-57075000D03*
X13580000Y-12625000D03*
X71365000Y-57710000D03*
X89780000Y-55805000D03*
X93590000Y-24055000D03*
X89145000Y-30405000D03*
X89145000Y-27865000D03*
X96130000Y-55170000D03*
X97400000Y-50725000D03*
X109465000Y-62790000D03*
X87240000Y-60885000D03*
X99940000Y-53265000D03*
X106290000Y-55805000D03*
X104385000Y-47550000D03*
X106925000Y-55170000D03*
X105655000Y-46280000D03*
X88510000Y-37390000D03*
X50410000Y-27230000D03*
X58665000Y-27865000D03*
X84700000Y-38025000D03*
X32630000Y-16435000D03*
X89780000Y-51995000D03*
X32630000Y-22150000D03*
X89145000Y-46915000D03*
X37710000Y-26595000D03*
X90415000Y-34215000D03*
X31360000Y-22150000D03*
X35170000Y-22150000D03*
X89780000Y-34850000D03*
X73905000Y-29770000D03*
X65650000Y-29770000D03*
X81525000Y-41200000D03*
X37710000Y-40565000D03*
X25645000Y-29135000D03*
X24375000Y-30405000D03*
X86605000Y-41200000D03*
X75175000Y-45645000D03*
X64380000Y-39930000D03*
X61840000Y-41200000D03*
X76064000Y-46661000D03*
X47870000Y-39930000D03*
X51680000Y-48820000D03*
X58030000Y-43740000D03*
X73270000Y-50090000D03*
X72635000Y-50725000D03*
X70730000Y-50725000D03*
X41520000Y-40565000D03*
X70730000Y-53265000D03*
X40885000Y-41200000D03*
X41520000Y-41835000D03*
X69460000Y-53900000D03*
X84700000Y-62155000D03*
X84065000Y-76125000D03*
X85335000Y-76760000D03*
X85970000Y-60885000D03*
X89780000Y-61520000D03*
X86605000Y-72315000D03*
X74540000Y-71045000D03*
X80890000Y-50725000D03*
X73905000Y-73585000D03*
X80255000Y-50090000D03*
X73270000Y-72950000D03*
X79620000Y-49455000D03*
X41520000Y-89460000D03*
X81525000Y-45645000D03*
X82795000Y-45645000D03*
X40885000Y-90095000D03*
X40250000Y-92635000D03*
X87240000Y-53900000D03*
X87875000Y-54535000D03*
X39615000Y-93270000D03*
X92955000Y-60885000D03*
X67555000Y-93905000D03*
X54220000Y-93905000D03*
X73905000Y-90730000D03*
X84700000Y-55170000D03*
X55490000Y-90730000D03*
X72635000Y-91365000D03*
X53585000Y-91365000D03*
X85335000Y-54535000D03*
X85970000Y-53900000D03*
X70095000Y-92000000D03*
X54855000Y-92000000D03*
X35805000Y-18340000D03*
X37075000Y-17705000D03*
X141850000Y-76125000D03*
X105655000Y-45010000D03*
X131055000Y-52630000D03*
X141215000Y-36120000D03*
X21835000Y-66600000D03*
X21835000Y-71680000D03*
X21835000Y-78665000D03*
X21835000Y-84380000D03*
X41520000Y-82475000D03*
X29455000Y-50725000D03*
X30725000Y-54535000D03*
X41520000Y-77395000D03*
X28820000Y-48820000D03*
X41520000Y-85015000D03*
X41520000Y-79935000D03*
X30090000Y-52630000D03*
X40250000Y-63425000D03*
X35170000Y-63425000D03*
X27550000Y-63425000D03*
X47870000Y-63425000D03*
X23105000Y-66600000D03*
X23105000Y-78665000D03*
D41*
X133595000Y-71045000D03*
X141215000Y-71045000D03*
X141215000Y-78030000D03*
X134865000Y-78665000D03*
X133595000Y-31675000D03*
X141215000Y-31675000D03*
X141215000Y-38660000D03*
X134865000Y-39295000D03*
D40*
X91050000Y-45010000D03*
X96765000Y-45645000D03*
X108830000Y-46915000D03*
X44695000Y-44375000D03*
X52315000Y-10085000D03*
X60570000Y-11355000D03*
X72000000Y-70410000D03*
X73905000Y-58980000D03*
X99305000Y-51360000D03*
X99305000Y-81840000D03*
X99305000Y-64695000D03*
X87240000Y-45010000D03*
X84700000Y-40565000D03*
X50410000Y-53900000D03*
X83430000Y-45010000D03*
X45330000Y-61520000D03*
X78350000Y-38025000D03*
X80890000Y-34850000D03*
D42*
X136250000Y-36320000D02*
X134750000Y-36320000D01*
X136250000Y-34920000D02*
X136250000Y-36320000D01*
X134750000Y-33520000D02*
X136250000Y-33520000D01*
X134750000Y-34920000D02*
X134750000Y-36320000D01*
X136250000Y-33520000D02*
X136250000Y-34920000D01*
X134750000Y-33520000D02*
X134750000Y-34920000D01*
D43*
X47235000Y-83745000D02*
X47235000Y-77395000D01*
X35170000Y-83745000D02*
X35170000Y-77395000D01*
D44*
X47235000Y-86285000D02*
X47235000Y-83745000D01*
X49140000Y-88190000D02*
X47235000Y-86285000D01*
X49140000Y-88190000D02*
X69460000Y-88190000D01*
D42*
X35170000Y-83745000D02*
X35170000Y-83745000D01*
D44*
X35805000Y-87555000D02*
X35170000Y-86920000D01*
X45965000Y-87555000D02*
X47235000Y-86285000D01*
X35805000Y-87555000D02*
X45965000Y-87555000D01*
X35170000Y-86920000D02*
X35170000Y-83745000D01*
D42*
X118990000Y-60250000D02*
X127880000Y-69140000D01*
X108830000Y-60250000D02*
X118990000Y-60250000D01*
X106925000Y-58345000D02*
X108830000Y-60250000D01*
X127880000Y-69140000D02*
X127880000Y-70410000D01*
X106925000Y-58345000D02*
X105655000Y-59615000D01*
X105655000Y-59615000D02*
X94860000Y-59615000D01*
X94860000Y-59615000D02*
X93590000Y-58345000D01*
X128515000Y-72315000D02*
X128515000Y-48820000D01*
X128515000Y-48820000D02*
X128515000Y-36120000D01*
X128515000Y-36120000D02*
X128515000Y-35485000D01*
X128515000Y-35485000D02*
X128515000Y-34850000D01*
X128515000Y-34850000D02*
X129150000Y-34215000D01*
X116450000Y-50090000D02*
X117720000Y-51360000D01*
X113275000Y-50090000D02*
X116450000Y-50090000D01*
X111370000Y-48185000D02*
X113275000Y-50090000D01*
X129785000Y-34850000D02*
X129785000Y-51360000D01*
X129785000Y-51360000D02*
X129785000Y-55805000D01*
X129785000Y-55805000D02*
X129785000Y-74220000D01*
X120895000Y-53265000D02*
X118990000Y-55170000D01*
X127880000Y-34215000D02*
X120895000Y-41200000D01*
X120895000Y-41200000D02*
X120895000Y-53265000D01*
X112640000Y-55170000D02*
X111370000Y-53900000D01*
X118990000Y-55170000D02*
X112640000Y-55170000D01*
X108830000Y-53900000D02*
X111370000Y-53900000D01*
X108195000Y-53265000D02*
X108830000Y-53900000D01*
D45*
X57395000Y-7545000D02*
X58665000Y-8815000D01*
X72000000Y-13260000D02*
X76445000Y-13260000D01*
X67555000Y-8815000D02*
X72000000Y-13260000D01*
X58665000Y-8815000D02*
X67555000Y-8815000D01*
D46*
X115180000Y-61520000D02*
X117720000Y-61520000D01*
X85335000Y-86920000D02*
X104385000Y-86920000D01*
X115180000Y-76125000D02*
X115180000Y-61520000D01*
X104385000Y-86920000D02*
X115180000Y-76125000D01*
D42*
X30090000Y-27865000D02*
X13600000Y-11375000D01*
X70730000Y-57075000D02*
X45965000Y-57075000D01*
X45965000Y-57075000D02*
X44695000Y-55805000D01*
X44695000Y-55805000D02*
X30090000Y-41200000D01*
X70730000Y-57075000D02*
X70730000Y-57075000D01*
X30090000Y-27865000D02*
X30090000Y-41200000D01*
X13600000Y-11375000D02*
X10416000Y-11375000D01*
X9770000Y-12625000D02*
X9666000Y-12625000D01*
X9666000Y-12625000D02*
X8416000Y-11375000D01*
X13580000Y-12625000D02*
X9770000Y-12625000D01*
X29455000Y-28500000D02*
X13580000Y-12625000D01*
X71365000Y-57710000D02*
X45330000Y-57710000D01*
X71365000Y-57710000D02*
X71365000Y-57710000D01*
X45330000Y-57710000D02*
X44060000Y-56440000D01*
X44060000Y-56440000D02*
X29455000Y-41835000D01*
X29455000Y-41835000D02*
X29455000Y-28500000D01*
D45*
X156455000Y-15165000D02*
X155820000Y-15165000D01*
X155820000Y-15165000D02*
X151376220Y-10721220D01*
X151376220Y-10721220D02*
X151376220Y-7542040D01*
D42*
X101210000Y-39295000D02*
X99305000Y-41200000D01*
X99305000Y-46280000D02*
X99305000Y-41200000D01*
X90415000Y-55170000D02*
X99305000Y-46280000D01*
X89780000Y-55805000D02*
X90415000Y-55170000D01*
X91685000Y-24055000D02*
X91050000Y-24055000D01*
X91685000Y-24055000D02*
X93590000Y-24055000D01*
X89145000Y-22150000D02*
X84065000Y-22150000D01*
X91050000Y-24055000D02*
X89145000Y-22150000D01*
X101210000Y-34215000D02*
X97400000Y-30405000D01*
X97400000Y-30405000D02*
X91685000Y-30405000D01*
X101210000Y-34215000D02*
X102480000Y-35485000D01*
X102480000Y-44375000D02*
X98035000Y-48820000D01*
X102480000Y-44375000D02*
X102480000Y-35485000D01*
X91685000Y-30405000D02*
X89145000Y-30405000D01*
X91685000Y-30405000D02*
X89145000Y-27865000D01*
X98035000Y-48820000D02*
X98035000Y-48820000D01*
X96130000Y-50725000D02*
X98035000Y-48820000D01*
X96130000Y-55170000D02*
X96130000Y-50725000D01*
X103115000Y-44927500D02*
X103115000Y-33580000D01*
X103115000Y-33580000D02*
X101210000Y-31675000D01*
X97400000Y-50725000D02*
X103115000Y-44927500D01*
X109465000Y-62790000D02*
X110100000Y-62790000D01*
X112640000Y-65330000D02*
X112640000Y-66600000D01*
X110100000Y-62790000D02*
X112640000Y-65330000D01*
X96765000Y-62790000D02*
X109465000Y-62790000D01*
X94225000Y-60250000D02*
X96765000Y-62790000D01*
X87875000Y-60250000D02*
X94225000Y-60250000D01*
X87240000Y-60885000D02*
X87875000Y-60250000D01*
X101845000Y-58345000D02*
X99940000Y-56440000D01*
X99940000Y-53265000D02*
X99940000Y-56440000D01*
X106290000Y-49455000D02*
X106290000Y-55805000D01*
X104385000Y-47550000D02*
X106290000Y-49455000D01*
X105655000Y-46280000D02*
X106925000Y-47550000D01*
X106925000Y-47550000D02*
X106925000Y-55170000D01*
X88510000Y-37390000D02*
X88510000Y-37390000D01*
X78350000Y-27230000D02*
X50410000Y-27230000D01*
X88510000Y-37390000D02*
X78350000Y-27230000D01*
X77715000Y-27865000D02*
X58665000Y-27865000D01*
X84700000Y-34850000D02*
X77715000Y-27865000D01*
X84700000Y-38025000D02*
X84700000Y-34850000D01*
X30725000Y-16435000D02*
X27550000Y-13260000D01*
X32630000Y-16435000D02*
X30725000Y-16435000D01*
X89780000Y-36120000D02*
X89780000Y-51995000D01*
X89780000Y-36120000D02*
X89780000Y-36132500D01*
X89780000Y-36132500D02*
X89780000Y-36120000D01*
X89780000Y-36132500D02*
X89780000Y-36120000D01*
X36440000Y-25960000D02*
X33900000Y-23420000D01*
X79620000Y-25960000D02*
X36440000Y-25960000D01*
X89780000Y-36120000D02*
X79620000Y-25960000D01*
X89792500Y-36120000D02*
X89780000Y-36120000D01*
X33900000Y-23420000D02*
X32630000Y-22150000D01*
X89780000Y-36132500D02*
X89780000Y-36132500D01*
X89145000Y-36755000D02*
X89145000Y-36755000D01*
X89145000Y-36755000D02*
X89145000Y-46915000D01*
X78985000Y-26595000D02*
X37710000Y-26595000D01*
X89145000Y-36755000D02*
X78985000Y-26595000D01*
X90415000Y-34215000D02*
X80890000Y-24690000D01*
X38980000Y-24690000D02*
X35170000Y-20880000D01*
X35170000Y-20880000D02*
X31995000Y-20880000D01*
X31995000Y-20880000D02*
X31360000Y-21515000D01*
X31360000Y-21515000D02*
X31360000Y-22150000D01*
X80890000Y-24690000D02*
X38980000Y-24690000D01*
X90415000Y-34215000D02*
X90415000Y-34215000D01*
X90415000Y-34215000D02*
X90415000Y-34215000D01*
X38345000Y-25325000D02*
X80255000Y-25325000D01*
X38345000Y-25325000D02*
X35170000Y-22150000D01*
X80255000Y-25325000D02*
X89780000Y-34850000D01*
X89780000Y-34850000D02*
X89780000Y-34850000D01*
X89780000Y-34850000D02*
X89780000Y-34850000D01*
X73905000Y-29770000D02*
X65650000Y-29770000D01*
X65650000Y-29770000D02*
X58665000Y-29770000D01*
X58665000Y-29770000D02*
X56760000Y-31675000D01*
X44060000Y-39295000D02*
X68190000Y-39295000D01*
X70095000Y-41200000D02*
X68190000Y-39295000D01*
X81525000Y-41200000D02*
X70095000Y-41200000D01*
X44060000Y-39295000D02*
X42790000Y-38025000D01*
X42790000Y-38025000D02*
X40250000Y-40565000D01*
X40250000Y-40565000D02*
X37710000Y-40565000D01*
X2940000Y-26595000D02*
X2215000Y-25870000D01*
X9135000Y-26595000D02*
X2940000Y-26595000D01*
X12310000Y-23420000D02*
X9135000Y-26595000D01*
X19295000Y-23420000D02*
X12310000Y-23420000D01*
X25010000Y-29135000D02*
X19295000Y-23420000D01*
X25645000Y-29135000D02*
X25010000Y-29135000D01*
X2940000Y-32945000D02*
X2215000Y-33670000D01*
X9135000Y-32945000D02*
X2940000Y-32945000D01*
X12310000Y-36120000D02*
X9135000Y-32945000D01*
X21835000Y-36120000D02*
X12310000Y-36120000D01*
X24375000Y-33580000D02*
X21835000Y-36120000D01*
X24375000Y-30405000D02*
X24375000Y-33580000D01*
X82795000Y-41200000D02*
X86605000Y-41200000D01*
X47870000Y-38660000D02*
X45965000Y-38660000D01*
X68825000Y-38660000D02*
X47870000Y-38660000D01*
X70730000Y-40565000D02*
X68825000Y-38660000D01*
X82160000Y-40565000D02*
X70730000Y-40565000D01*
X82160000Y-40565000D02*
X82795000Y-41200000D01*
X45965000Y-38660000D02*
X45330000Y-38025000D01*
X75175000Y-45645000D02*
X73270000Y-45645000D01*
X73270000Y-45645000D02*
X67555000Y-39930000D01*
X75175000Y-45645000D02*
X75102446Y-45620842D01*
X67555000Y-39930000D02*
X64380000Y-39930000D01*
X67555000Y-39930000D02*
X67555000Y-39930000D01*
X72000000Y-48185000D02*
X65015000Y-41200000D01*
X65015000Y-41200000D02*
X61840000Y-41200000D01*
X73905000Y-48185000D02*
X74540000Y-48185000D01*
X76064000Y-46661000D02*
X74540000Y-48185000D01*
X73905000Y-48185000D02*
X72000000Y-48185000D01*
X73270000Y-46915000D02*
X72000000Y-46915000D01*
X61840000Y-40565000D02*
X61205000Y-39930000D01*
X61205000Y-39930000D02*
X47870000Y-39930000D01*
X72000000Y-46915000D02*
X65650000Y-40565000D01*
X65650000Y-40565000D02*
X61840000Y-40565000D01*
X51680000Y-48820000D02*
X52315000Y-49455000D01*
X52315000Y-49455000D02*
X58030000Y-49455000D01*
X72000000Y-48820000D02*
X71365000Y-48820000D01*
X71365000Y-48820000D02*
X66285000Y-43740000D01*
X66285000Y-43740000D02*
X58030000Y-43740000D01*
X73270000Y-50090000D02*
X72000000Y-48820000D01*
X51680000Y-44375000D02*
X50410000Y-44375000D01*
X72635000Y-50725000D02*
X72000000Y-50725000D01*
X72000000Y-50725000D02*
X65650000Y-44375000D01*
X65650000Y-44375000D02*
X56125000Y-44375000D01*
X51680000Y-44375000D02*
X56125000Y-44375000D01*
X50410000Y-44375000D02*
X47870000Y-41835000D01*
X60570000Y-46915000D02*
X66920000Y-46915000D01*
X66920000Y-46915000D02*
X70730000Y-50725000D01*
X60570000Y-46915000D02*
X59300000Y-45645000D01*
X44695000Y-40565000D02*
X41520000Y-40565000D01*
X49775000Y-45645000D02*
X44695000Y-40565000D01*
X59300000Y-45645000D02*
X49775000Y-45645000D01*
X63110000Y-49455000D02*
X64380000Y-50725000D01*
X70095000Y-53265000D02*
X67555000Y-50725000D01*
X70730000Y-53265000D02*
X70095000Y-53265000D01*
X67555000Y-50725000D02*
X64380000Y-50725000D01*
X51045000Y-48185000D02*
X61840000Y-48185000D01*
X44060000Y-41200000D02*
X40885000Y-41200000D01*
X51045000Y-48185000D02*
X44060000Y-41200000D01*
X61840000Y-48185000D02*
X63110000Y-49455000D01*
X59300000Y-50725000D02*
X56760000Y-50725000D01*
X51680000Y-50090000D02*
X43425000Y-41835000D01*
X43425000Y-41835000D02*
X41520000Y-41835000D01*
X59300000Y-50725000D02*
X60570000Y-49455000D01*
X56125000Y-50090000D02*
X51680000Y-50090000D01*
X56760000Y-50725000D02*
X56125000Y-50090000D01*
X66920000Y-51360000D02*
X62475000Y-51360000D01*
X69460000Y-53900000D02*
X66920000Y-51360000D01*
X62475000Y-51360000D02*
X60570000Y-49455000D01*
X69460000Y-53900000D02*
X69460000Y-53900000D01*
X84700000Y-75490000D02*
X84065000Y-76125000D01*
X84700000Y-62155000D02*
X84700000Y-75490000D01*
X85970000Y-62155000D02*
X85970000Y-60885000D01*
X85335000Y-62790000D02*
X85970000Y-62155000D01*
X85335000Y-76760000D02*
X85335000Y-62790000D01*
X86605000Y-64695000D02*
X86605000Y-72315000D01*
X89780000Y-61520000D02*
X86605000Y-64695000D01*
X78985000Y-66600000D02*
X74540000Y-71045000D01*
X74540000Y-71045000D02*
X74540000Y-71045000D01*
X80890000Y-50725000D02*
X78985000Y-52630000D01*
X78985000Y-52630000D02*
X78985000Y-66600000D01*
X73905000Y-70410000D02*
X73905000Y-73585000D01*
X80255000Y-50090000D02*
X78350000Y-51995000D01*
X78350000Y-51995000D02*
X78350000Y-65965000D01*
X78350000Y-65965000D02*
X73905000Y-70410000D01*
X73905000Y-70410000D02*
X73905000Y-70410000D01*
X73270000Y-69775000D02*
X73270000Y-72950000D01*
X73270000Y-69775000D02*
X73270000Y-69775000D01*
X73270000Y-69775000D02*
X77715000Y-65330000D01*
X79620000Y-49455000D02*
X77715000Y-51360000D01*
X77715000Y-51360000D02*
X77715000Y-65330000D01*
X77715000Y-65330000D02*
X77715000Y-65330000D01*
X18025000Y-95175000D02*
X23740000Y-89460000D01*
X23740000Y-89460000D02*
X41520000Y-89460000D01*
X75175000Y-86920000D02*
X72635000Y-89460000D01*
X75175000Y-73585000D02*
X75175000Y-86920000D01*
X79620000Y-69140000D02*
X75175000Y-73585000D01*
X72635000Y-89460000D02*
X41520000Y-89460000D01*
X81525000Y-45645000D02*
X81525000Y-51360000D01*
X79620000Y-53265000D02*
X79620000Y-69140000D01*
X81525000Y-51360000D02*
X79620000Y-53265000D01*
X79620000Y-69140000D02*
X79620000Y-69140000D01*
X82160000Y-51995000D02*
X82160000Y-46280000D01*
X75810000Y-74220000D02*
X75810000Y-87555000D01*
X75810000Y-87555000D02*
X73270000Y-90095000D01*
X40885000Y-90095000D02*
X73270000Y-90095000D01*
X80255000Y-53900000D02*
X80255000Y-69775000D01*
X82160000Y-51995000D02*
X80255000Y-53900000D01*
X80255000Y-69775000D02*
X75810000Y-74220000D01*
X82160000Y-46280000D02*
X82795000Y-45645000D01*
X20565000Y-95175000D02*
X25645000Y-90095000D01*
X25645000Y-90095000D02*
X40885000Y-90095000D01*
X23105000Y-95175000D02*
X25645000Y-92635000D01*
X25645000Y-92635000D02*
X40250000Y-92635000D01*
X84065000Y-72950000D02*
X78350000Y-78665000D01*
X86605000Y-58980000D02*
X84065000Y-61520000D01*
X86605000Y-54535000D02*
X86605000Y-58980000D01*
X87240000Y-53900000D02*
X86605000Y-54535000D01*
X84065000Y-61520000D02*
X84065000Y-72950000D01*
X75810000Y-92635000D02*
X40250000Y-92635000D01*
X78350000Y-90095000D02*
X75810000Y-92635000D01*
X78350000Y-78665000D02*
X78350000Y-90095000D01*
X25645000Y-95175000D02*
X27550000Y-93270000D01*
X27550000Y-93270000D02*
X39615000Y-93270000D01*
X85970000Y-63425000D02*
X85970000Y-77395000D01*
X85970000Y-77395000D02*
X80255000Y-83110000D01*
X80255000Y-83110000D02*
X80255000Y-83110000D01*
X80255000Y-83110000D02*
X78985000Y-84380000D01*
X78985000Y-84380000D02*
X78985000Y-90730000D01*
X78985000Y-90730000D02*
X76445000Y-93270000D01*
X76445000Y-93270000D02*
X39615000Y-93270000D01*
X87240000Y-55170000D02*
X87240000Y-59615000D01*
X87240000Y-59615000D02*
X86605000Y-60250000D01*
X86605000Y-60250000D02*
X86605000Y-62790000D01*
X87875000Y-54535000D02*
X87240000Y-55170000D01*
X86605000Y-62790000D02*
X85970000Y-63425000D01*
X88510000Y-65965000D02*
X92955000Y-61520000D01*
X80890000Y-83745000D02*
X88510000Y-76125000D01*
X88510000Y-65965000D02*
X88510000Y-76125000D01*
X92955000Y-61520000D02*
X92955000Y-60885000D01*
X80890000Y-83745000D02*
X80890000Y-83745000D01*
X80890000Y-83745000D02*
X79620000Y-85015000D01*
X79620000Y-85015000D02*
X79620000Y-91365000D01*
X79620000Y-91365000D02*
X77080000Y-93905000D01*
X77080000Y-93905000D02*
X67555000Y-93905000D01*
X67555000Y-93905000D02*
X54220000Y-93905000D01*
X76445000Y-76760000D02*
X76445000Y-88190000D01*
X76445000Y-88190000D02*
X73905000Y-90730000D01*
X73905000Y-90730000D02*
X55490000Y-90730000D01*
X81525000Y-58980000D02*
X81525000Y-71680000D01*
X84700000Y-55805000D02*
X81525000Y-58980000D01*
X84700000Y-55170000D02*
X84700000Y-55805000D01*
X81525000Y-71680000D02*
X76445000Y-76760000D01*
X77080000Y-77395000D02*
X77080000Y-88825000D01*
X77080000Y-88825000D02*
X74540000Y-91365000D01*
X74540000Y-91365000D02*
X72635000Y-91365000D01*
X72635000Y-91365000D02*
X53585000Y-91365000D01*
X77080000Y-77395000D02*
X82160000Y-72315000D01*
X82160000Y-72315000D02*
X82160000Y-72315000D01*
X85335000Y-57710000D02*
X82160000Y-60885000D01*
X85335000Y-54535000D02*
X85335000Y-57710000D01*
X82160000Y-60885000D02*
X82160000Y-72315000D01*
X85970000Y-53900000D02*
X85970000Y-58345000D01*
X82795000Y-61520000D02*
X82795000Y-72950000D01*
X85970000Y-58345000D02*
X82795000Y-61520000D01*
X82795000Y-72950000D02*
X77715000Y-78030000D01*
X77715000Y-78030000D02*
X77715000Y-89460000D01*
X77715000Y-89460000D02*
X75175000Y-92000000D01*
X75175000Y-92000000D02*
X70095000Y-92000000D01*
X70095000Y-92000000D02*
X54855000Y-92000000D01*
X34535000Y-17070000D02*
X34535000Y-7545000D01*
X35805000Y-18340000D02*
X34535000Y-17070000D01*
X37075000Y-17705000D02*
X37075000Y-7545000D01*
X139310000Y-77395000D02*
X132960000Y-77395000D01*
X141850000Y-76125000D02*
X140580000Y-76125000D01*
X140580000Y-76125000D02*
X139310000Y-77395000D01*
X115180000Y-53900000D02*
X114545000Y-53900000D01*
X114545000Y-53900000D02*
X105655000Y-45010000D01*
X131055000Y-75490000D02*
X131055000Y-57075000D01*
X132960000Y-77395000D02*
X131055000Y-75490000D01*
X131055000Y-57075000D02*
X131055000Y-52630000D01*
X132960000Y-38025000D02*
X131055000Y-39930000D01*
X131055000Y-39930000D02*
X131055000Y-52630000D01*
X139310000Y-38025000D02*
X132960000Y-38025000D01*
X139310000Y-38025000D02*
X141215000Y-36120000D01*
X21835000Y-66600000D02*
X20565000Y-65330000D01*
X20565000Y-65330000D02*
X12310000Y-65330000D01*
X21835000Y-71680000D02*
X14850000Y-71680000D01*
X12310000Y-69140000D02*
X12310000Y-67870000D01*
X14850000Y-71680000D02*
X12310000Y-69140000D01*
X13580000Y-78665000D02*
X12310000Y-79935000D01*
X21835000Y-78665000D02*
X13580000Y-78665000D01*
X21200000Y-85015000D02*
X13580000Y-85015000D01*
X13580000Y-85015000D02*
X12310000Y-83745000D01*
X12310000Y-83745000D02*
X12310000Y-82475000D01*
X21835000Y-84380000D02*
X21200000Y-85015000D01*
X39615000Y-80570000D02*
X41520000Y-82475000D01*
X39615000Y-71680000D02*
X39615000Y-80570000D01*
X29455000Y-61520000D02*
X39615000Y-71680000D01*
X29455000Y-50725000D02*
X29455000Y-61520000D01*
X30725000Y-54535000D02*
X30725000Y-60250000D01*
X40885000Y-70410000D02*
X30725000Y-60250000D01*
X40885000Y-76760000D02*
X40885000Y-70410000D01*
X40885000Y-76760000D02*
X41520000Y-77395000D01*
X28820000Y-48820000D02*
X28820000Y-62155000D01*
X28820000Y-62155000D02*
X28820000Y-62155000D01*
X28820000Y-62155000D02*
X38980000Y-72315000D01*
X38980000Y-72315000D02*
X38980000Y-82475000D01*
X38980000Y-82475000D02*
X41520000Y-85015000D01*
X40250000Y-78665000D02*
X41520000Y-79935000D01*
X40250000Y-71045000D02*
X40250000Y-78030000D01*
X40250000Y-78030000D02*
X40250000Y-78665000D01*
X30090000Y-60885000D02*
X40250000Y-71045000D01*
X30090000Y-52630000D02*
X30090000Y-60885000D01*
X14215000Y-45010000D02*
X15485000Y-45010000D01*
D44*
X25645000Y-52630000D02*
X18025000Y-45010000D01*
X15485000Y-45010000D02*
X18025000Y-45010000D01*
X14215000Y-45010000D02*
X12310000Y-45010000D01*
X23105000Y-66600000D02*
X23105000Y-55170000D01*
X23105000Y-55170000D02*
X25645000Y-52630000D01*
X23105000Y-66600000D02*
X23105000Y-67235000D01*
X23105000Y-66600000D02*
X23105000Y-78665000D01*
X21200000Y-69140000D02*
X14850000Y-69140000D01*
X23105000Y-67235000D02*
X21200000Y-69140000D01*
D47*
X137405000Y-71045000D02*
X139310000Y-69140000D01*
X134865000Y-71045000D02*
X137405000Y-71045000D01*
X133595000Y-71045000D02*
X134865000Y-71045000D01*
X139310000Y-69140000D02*
X150740000Y-69140000D01*
X150740000Y-69140000D02*
X153280000Y-71680000D01*
X153280000Y-71680000D02*
X156455000Y-71680000D01*
D42*
X141215000Y-71045000D02*
X141215000Y-71045000D01*
D47*
X150105000Y-71045000D02*
X153280000Y-74220000D01*
X153280000Y-74220000D02*
X156455000Y-74220000D01*
X141215000Y-71045000D02*
X150105000Y-71045000D01*
X141215000Y-78030000D02*
X141850000Y-78665000D01*
X141850000Y-78665000D02*
X150105000Y-78665000D01*
X153280000Y-76760000D02*
X156455000Y-76760000D01*
X151375000Y-78665000D02*
X153280000Y-76760000D01*
X150105000Y-78665000D02*
X151375000Y-78665000D01*
X134865000Y-78665000D02*
X138040000Y-78665000D01*
X138040000Y-78665000D02*
X139310000Y-79935000D01*
X139310000Y-79935000D02*
X152645000Y-79935000D01*
X152645000Y-79935000D02*
X153280000Y-79300000D01*
X153280000Y-79300000D02*
X156455000Y-79300000D01*
X138951458Y-30061381D02*
X151050226Y-30092988D01*
X151050226Y-30092988D02*
X153280000Y-32310000D01*
X153280000Y-32310000D02*
X156455000Y-32310000D01*
X137405000Y-31675000D02*
X138951458Y-30061381D01*
X133595000Y-31675000D02*
X137405000Y-31675000D01*
D42*
X141215000Y-31675000D02*
X141215000Y-31675000D01*
D47*
X150105000Y-31675000D02*
X153280000Y-34850000D01*
X153280000Y-34850000D02*
X156455000Y-34850000D01*
X141215000Y-31675000D02*
X150105000Y-31675000D01*
D42*
X141215000Y-38660000D02*
X141215000Y-38660000D01*
D47*
X141215000Y-38660000D02*
X141850000Y-39295000D01*
X151375000Y-39295000D02*
X153280000Y-37390000D01*
X153280000Y-37390000D02*
X156455000Y-37390000D01*
X141850000Y-39295000D02*
X151375000Y-39295000D01*
X134865000Y-39295000D02*
X138040000Y-39295000D01*
X152645000Y-40565000D02*
X153280000Y-39930000D01*
X156455000Y-39930000D02*
X153280000Y-39930000D01*
X152645000Y-40565000D02*
X139310000Y-40565000D01*
X138040000Y-39295000D02*
X139310000Y-40565000D01*
D45*
X156455000Y-22785000D02*
X154550000Y-22785000D01*
X154550000Y-17705000D02*
X156455000Y-17705000D01*
X153915000Y-18340000D02*
X154550000Y-17705000D01*
X153915000Y-22150000D02*
X153915000Y-18340000D01*
X154550000Y-22785000D02*
X153915000Y-22150000D01*
D42*
X91050000Y-45010000D02*
X91685000Y-45645000D01*
X91685000Y-45645000D02*
X96765000Y-45645000D01*
X108830000Y-46915000D02*
X113275000Y-51360000D01*
X113275000Y-51360000D02*
X115180000Y-51360000D01*
X51045000Y-51360000D02*
X51045000Y-50725000D01*
X44695000Y-44375000D02*
X51045000Y-50725000D01*
X51045000Y-51360000D02*
X51680000Y-51995000D01*
D44*
X52315000Y-10085000D02*
X59300000Y-10085000D01*
X59300000Y-10085000D02*
X60570000Y-11355000D01*
D42*
X72000000Y-60885000D02*
X73905000Y-58980000D01*
X72000000Y-70410000D02*
X72000000Y-60885000D01*
X111370000Y-56440000D02*
X104385000Y-56440000D01*
X99305000Y-51360000D02*
X104385000Y-56440000D01*
X99305000Y-81840000D02*
X99305000Y-64695000D01*
X83430000Y-38025000D02*
X83430000Y-34850000D01*
X87875000Y-44375000D02*
X87875000Y-40565000D01*
X87875000Y-40565000D02*
X85970000Y-38660000D01*
X85970000Y-38660000D02*
X84065000Y-38660000D01*
X87240000Y-45010000D02*
X87875000Y-44375000D01*
X83430000Y-38025000D02*
X84065000Y-38660000D01*
X80255000Y-31675000D02*
X78350000Y-31675000D01*
X83430000Y-34850000D02*
X80255000Y-31675000D01*
X36440000Y-27230000D02*
X32630000Y-23420000D01*
X39615000Y-27230000D02*
X36440000Y-27230000D01*
X73905000Y-36755000D02*
X49140000Y-36755000D01*
X77080000Y-39930000D02*
X73905000Y-36755000D01*
X82795000Y-39930000D02*
X77080000Y-39930000D01*
X83430000Y-40565000D02*
X82795000Y-39930000D01*
X84700000Y-40565000D02*
X83430000Y-40565000D01*
X49140000Y-36755000D02*
X39615000Y-27230000D01*
X14215000Y-9450000D02*
X14215000Y-7545000D01*
X14850000Y-10085000D02*
X14215000Y-9450000D01*
X18660000Y-10085000D02*
X14850000Y-10085000D01*
X20565000Y-11990000D02*
X18660000Y-10085000D01*
X20565000Y-14530000D02*
X20565000Y-11990000D01*
X29455000Y-23420000D02*
X20565000Y-14530000D01*
X30090000Y-23420000D02*
X29455000Y-23420000D01*
X32630000Y-23420000D02*
X30090000Y-23420000D01*
X51045000Y-54535000D02*
X71365000Y-54535000D01*
X71365000Y-54535000D02*
X80890000Y-45010000D01*
X51045000Y-54535000D02*
X50410000Y-53900000D01*
X83430000Y-45010000D02*
X80890000Y-45010000D01*
X35170000Y-50725000D02*
X45330000Y-60885000D01*
X35170000Y-50725000D02*
X35170000Y-48820000D01*
X35170000Y-48820000D02*
X28820000Y-42470000D01*
X28820000Y-42470000D02*
X28820000Y-29135000D01*
X28820000Y-29135000D02*
X13580000Y-13895000D01*
X10436000Y-13895000D02*
X13580000Y-13895000D01*
X45330000Y-60885000D02*
X45330000Y-61520000D01*
X10436000Y-13895000D02*
X10416000Y-13875000D01*
X80890000Y-35485000D02*
X78350000Y-38025000D01*
X80890000Y-34850000D02*
X80890000Y-35485000D01*
M02*
