%TF.GenerationSoftware,KiCad,Pcbnew,4.0.3-stable*%
%TF.CreationDate,2016-08-27T14:55:03+02:00*%
%TF.ProjectId,TEST4,54455354342E6B696361645F70636200,rev?*%
%TF.FileFunction,Soldermask,Top*%
%FSLAX46Y46*%
G04 Gerber Fmt 4.6, Leading zero omitted, Abs format (unit mm)*
G04 Created by KiCad (PCBNEW 4.0.3-stable) date 08/27/16 14:55:03*
%MOMM*%
%LPD*%
G01*
G04 APERTURE LIST*
%ADD10C,0.100000*%
%ADD11R,2.500000X1.500000*%
%ADD12O,2.500000X1.500000*%
%ADD13C,1.700000*%
%ADD14C,3.170000*%
%ADD15R,1.270000X0.406400*%
%ADD16R,1.198880X1.399540*%
%ADD17R,1.000760X1.399540*%
%ADD18R,0.508000X1.143000*%
%ADD19R,1.800860X0.800100*%
%ADD20C,3.200000*%
%ADD21R,2.032000X1.727200*%
%ADD22O,2.032000X1.727200*%
%ADD23C,6.500000*%
%ADD24C,3.300000*%
%ADD25C,1.524000*%
%ADD26C,1.500000*%
%ADD27C,2.500000*%
%ADD28C,1.600000*%
%ADD29R,1.400000X1.200000*%
%ADD30R,1.200000X1.400000*%
%ADD31R,1.600000X2.000000*%
%ADD32R,2.000000X1.600000*%
%ADD33R,0.508000X1.543000*%
%ADD34R,1.543000X0.508000*%
%ADD35R,1.950000X0.600000*%
%ADD36C,2.540000*%
%ADD37R,2.540000X2.540000*%
%ADD38R,0.350000X0.600000*%
%ADD39R,2.000000X1.700000*%
%ADD40R,1.700000X2.000000*%
%ADD41R,3.500120X1.800860*%
%ADD42R,2.700000X3.200000*%
%ADD43R,0.280000X1.500000*%
%ADD44R,1.500000X0.280000*%
%ADD45R,1.500000X0.900000*%
%ADD46R,0.900000X1.500000*%
%ADD47R,2.032000X2.032000*%
%ADD48O,2.032000X2.032000*%
%ADD49R,2.000000X2.000000*%
%ADD50C,2.000000*%
%ADD51R,1.600000X1.600000*%
%ADD52R,5.000000X1.800000*%
%ADD53R,5.000000X1.000000*%
%ADD54R,1.727200X2.000000*%
%ADD55O,1.727200X2.000000*%
%ADD56R,1.727200X2.032000*%
%ADD57O,1.727200X2.032000*%
%ADD58R,2.000000X1.727200*%
%ADD59O,2.000000X1.727200*%
%ADD60C,1.900000*%
%ADD61C,1.800000*%
%ADD62R,1.150000X2.700000*%
%ADD63O,2.500000X1.727200*%
%ADD64R,1.750000X0.400000*%
%ADD65R,1.500000X1.500000*%
%ADD66C,4.000000*%
%ADD67R,0.850000X0.230000*%
%ADD68R,0.230000X0.850000*%
%ADD69R,1.300000X1.300000*%
G04 APERTURE END LIST*
D10*
X0Y-100000000D02*
X0Y0D01*
X160000000Y-100000000D02*
X0Y-100000000D01*
X160000000Y0D02*
X160000000Y-100000000D01*
X0Y0D02*
X160000000Y0D01*
D11*
X76445000Y-8180000D03*
D12*
X76445000Y-10720000D03*
X76445000Y-13260000D03*
D13*
X14850000Y-48820000D03*
X14850000Y-46280000D03*
X12310000Y-45010000D03*
X12310000Y-47550000D03*
D14*
X5960000Y-51995000D03*
X5960000Y-41835000D03*
D13*
X12310000Y-50090000D03*
X14850000Y-43740000D03*
D15*
X68952000Y-79046000D03*
X68952000Y-78411000D03*
X68952000Y-77750600D03*
X68952000Y-77090200D03*
X68952000Y-76455200D03*
X68952000Y-75794800D03*
X68952000Y-75134400D03*
X68952000Y-74499400D03*
X68952000Y-73839000D03*
X68952000Y-73204000D03*
X63618000Y-73204000D03*
X63618000Y-73839000D03*
X63618000Y-74499400D03*
X63618000Y-75134400D03*
X63618000Y-75794800D03*
X63618000Y-76455200D03*
X63618000Y-77090200D03*
X63618000Y-77750600D03*
X63618000Y-78411000D03*
X63618000Y-79046000D03*
D16*
X16889620Y-11525180D03*
D17*
X15170040Y-11525180D03*
X15170040Y-13724820D03*
X17069960Y-13724820D03*
D18*
X100575000Y-71680000D03*
X101845000Y-71680000D03*
X103115000Y-71680000D03*
X104385000Y-71680000D03*
X105655000Y-71680000D03*
X106925000Y-71680000D03*
X108195000Y-71680000D03*
X109465000Y-71680000D03*
X109465000Y-61520000D03*
X108195000Y-61520000D03*
X106925000Y-61520000D03*
X105655000Y-61520000D03*
X104385000Y-61520000D03*
X103115000Y-61520000D03*
X101845000Y-61520000D03*
X100575000Y-61520000D03*
D19*
X48273860Y-17390000D03*
X48273860Y-19290000D03*
X51276140Y-18340000D03*
X55893860Y-17390000D03*
X55893860Y-19290000D03*
X58896140Y-18340000D03*
D20*
X157000000Y-93000000D03*
X3000000Y-97000000D03*
X93000000Y-7000000D03*
X157000000Y-7000000D03*
X93000000Y-93000000D03*
X3000000Y-3000000D03*
D13*
X14850000Y-83745000D03*
X14850000Y-81205000D03*
X12310000Y-79935000D03*
X12310000Y-82475000D03*
D14*
X5960000Y-85650000D03*
X5960000Y-78030000D03*
D13*
X14850000Y-69140000D03*
X14850000Y-66600000D03*
X12310000Y-65330000D03*
X12310000Y-67870000D03*
D14*
X5960000Y-71045000D03*
X5960000Y-63425000D03*
D21*
X58000000Y-86000000D03*
D22*
X58000000Y-83460000D03*
X58000000Y-80920000D03*
X58000000Y-78380000D03*
X58000000Y-75840000D03*
X58000000Y-73300000D03*
X58000000Y-70760000D03*
X58000000Y-68220000D03*
X58000000Y-65680000D03*
X58000000Y-63140000D03*
D23*
X8000000Y-91000000D03*
X8000000Y-58000000D03*
D19*
X112408860Y-75175000D03*
X112408860Y-77075000D03*
X115411140Y-76125000D03*
D24*
X6595000Y-35470000D03*
X6595000Y-24070000D03*
D25*
X17455000Y-25325000D03*
D26*
X19995000Y-26595000D03*
X17455000Y-27865000D03*
X19995000Y-29135000D03*
X17455000Y-30405000D03*
X19995000Y-31675000D03*
X17455000Y-32945000D03*
D27*
X10295000Y-37520000D03*
X10295000Y-22020000D03*
D28*
X2215000Y-36210000D03*
X2215000Y-25870000D03*
X2215000Y-33670000D03*
X2215000Y-23330000D03*
D26*
X19995000Y-34215000D03*
D29*
X73905000Y-63890000D03*
X73905000Y-61690000D03*
X76445000Y-63890000D03*
X76445000Y-61690000D03*
D30*
X36270000Y-53900000D03*
X34070000Y-53900000D03*
X36270000Y-51360000D03*
X34070000Y-51360000D03*
D11*
X85335000Y-92000000D03*
D12*
X85335000Y-89460000D03*
X85335000Y-86920000D03*
D11*
X127245000Y-8180000D03*
D12*
X127245000Y-10720000D03*
X127245000Y-13260000D03*
D31*
X47870000Y-55710000D03*
X47870000Y-59710000D03*
X71365000Y-60790000D03*
X71365000Y-64790000D03*
D32*
X33170000Y-57710000D03*
X37170000Y-57710000D03*
D31*
X97400000Y-64600000D03*
X97400000Y-68600000D03*
D32*
X29360000Y-30405000D03*
X33360000Y-30405000D03*
X148295000Y-74855000D03*
X144295000Y-74855000D03*
X144295000Y-71680000D03*
X148295000Y-71680000D03*
D31*
X125975000Y-76220000D03*
X125975000Y-72220000D03*
D32*
X101750000Y-74855000D03*
X105750000Y-74855000D03*
X90320000Y-16435000D03*
X94320000Y-16435000D03*
X42455000Y-11835000D03*
X38455000Y-11835000D03*
X63650000Y-63425000D03*
X67650000Y-63425000D03*
X68920000Y-51995000D03*
X64920000Y-51995000D03*
X63650000Y-55805000D03*
X67650000Y-55805000D03*
X103210000Y-55805000D03*
X99210000Y-55805000D03*
D31*
X89780000Y-68600000D03*
X89780000Y-64600000D03*
D32*
X76350000Y-39295000D03*
X80350000Y-39295000D03*
D31*
X80890000Y-68600000D03*
X80890000Y-64600000D03*
D32*
X66190000Y-45645000D03*
X70190000Y-45645000D03*
D31*
X94860000Y-68600000D03*
X94860000Y-64600000D03*
D32*
X69365000Y-41835000D03*
X73365000Y-41835000D03*
D31*
X87240000Y-68600000D03*
X87240000Y-64600000D03*
D32*
X105115000Y-50090000D03*
X101115000Y-50090000D03*
X66825000Y-48820000D03*
X70825000Y-48820000D03*
X63650000Y-58345000D03*
X67650000Y-58345000D03*
D31*
X83430000Y-64600000D03*
X83430000Y-68600000D03*
D32*
X148295000Y-35485000D03*
X144295000Y-35485000D03*
X144295000Y-32310000D03*
X148295000Y-32310000D03*
X128420000Y-85015000D03*
X132420000Y-85015000D03*
D31*
X72000000Y-13355000D03*
X72000000Y-9355000D03*
X89780000Y-84285000D03*
X89780000Y-88285000D03*
D32*
X127150000Y-18975000D03*
X131150000Y-18975000D03*
X139215000Y-41200000D03*
X143215000Y-41200000D03*
X128420000Y-63425000D03*
X132420000Y-63425000D03*
D31*
X125975000Y-36850000D03*
X125975000Y-32850000D03*
D32*
X128420000Y-24055000D03*
X132420000Y-24055000D03*
X144295000Y-77395000D03*
X148295000Y-77395000D03*
X144295000Y-38025000D03*
X148295000Y-38025000D03*
X35470000Y-11835000D03*
X31470000Y-11835000D03*
D31*
X42790000Y-19070000D03*
X42790000Y-15070000D03*
D32*
X24280000Y-17070000D03*
X28280000Y-17070000D03*
X42885000Y-23420000D03*
X38885000Y-23420000D03*
D31*
X18025000Y-39200000D03*
X18025000Y-43200000D03*
X14215000Y-20340000D03*
X14215000Y-16340000D03*
D32*
X29360000Y-32945000D03*
X33360000Y-32945000D03*
X29360000Y-35485000D03*
X33360000Y-35485000D03*
X36345000Y-32945000D03*
X40345000Y-32945000D03*
X36345000Y-35485000D03*
X40345000Y-35485000D03*
D31*
X40250000Y-53170000D03*
X40250000Y-57170000D03*
D32*
X50315000Y-44375000D03*
X54315000Y-44375000D03*
X53490000Y-41835000D03*
X57490000Y-41835000D03*
X43330000Y-35485000D03*
X47330000Y-35485000D03*
D31*
X65015000Y-81745000D03*
X65015000Y-85745000D03*
X67555000Y-81745000D03*
X67555000Y-85745000D03*
X18025000Y-79840000D03*
X18025000Y-83840000D03*
X18025000Y-67140000D03*
X18025000Y-71140000D03*
D32*
X128420000Y-45645000D03*
X132420000Y-45645000D03*
X139215000Y-80570000D03*
X143215000Y-80570000D03*
X139215000Y-67870000D03*
X143215000Y-67870000D03*
X139215000Y-28500000D03*
X143215000Y-28500000D03*
X76000000Y-28000000D03*
X72000000Y-28000000D03*
D31*
X54855000Y-68410000D03*
X54855000Y-72410000D03*
D32*
X33360000Y-27865000D03*
X29360000Y-27865000D03*
X59395000Y-51995000D03*
X55395000Y-51995000D03*
X59395000Y-60250000D03*
X55395000Y-60250000D03*
D31*
X92320000Y-68600000D03*
X92320000Y-64600000D03*
X37710000Y-69870000D03*
X37710000Y-65870000D03*
X50410000Y-69870000D03*
X50410000Y-65870000D03*
D33*
X40250000Y-20680000D03*
X37710000Y-20680000D03*
X36440000Y-20680000D03*
X35170000Y-20680000D03*
X33900000Y-20680000D03*
X32630000Y-20680000D03*
X31360000Y-20680000D03*
X31360000Y-14730000D03*
X32630000Y-14730000D03*
X33900000Y-14730000D03*
X35170000Y-14730000D03*
X36440000Y-14730000D03*
X37710000Y-14730000D03*
X38980000Y-14730000D03*
X40250000Y-14730000D03*
X38980000Y-20680000D03*
D34*
X36240000Y-76125000D03*
X36240000Y-78665000D03*
X36240000Y-79935000D03*
X36240000Y-81205000D03*
X36240000Y-82475000D03*
X36240000Y-83745000D03*
X36240000Y-85015000D03*
X30290000Y-85015000D03*
X30290000Y-83745000D03*
X30290000Y-82475000D03*
X30290000Y-81205000D03*
X30290000Y-79935000D03*
X30290000Y-78665000D03*
X30290000Y-77395000D03*
X30290000Y-76125000D03*
X36240000Y-77395000D03*
X48940000Y-76125000D03*
X48940000Y-78665000D03*
X48940000Y-79935000D03*
X48940000Y-81205000D03*
X48940000Y-82475000D03*
X48940000Y-83745000D03*
X48940000Y-85015000D03*
X42990000Y-85015000D03*
X42990000Y-83745000D03*
X42990000Y-82475000D03*
X42990000Y-81205000D03*
X42990000Y-79935000D03*
X42990000Y-78665000D03*
X42990000Y-77395000D03*
X42990000Y-76125000D03*
X48940000Y-77395000D03*
D35*
X97020000Y-30405000D03*
X97020000Y-29135000D03*
X97020000Y-27865000D03*
X97020000Y-26595000D03*
X97020000Y-25325000D03*
X97020000Y-24055000D03*
X97020000Y-22785000D03*
X97020000Y-21515000D03*
X97020000Y-20245000D03*
X97020000Y-18975000D03*
X87620000Y-18975000D03*
X87620000Y-20245000D03*
X87620000Y-21515000D03*
X87620000Y-22785000D03*
X87620000Y-24055000D03*
X87620000Y-25325000D03*
X87620000Y-26595000D03*
X87620000Y-27865000D03*
X87620000Y-29135000D03*
X87620000Y-30405000D03*
D36*
X151376220Y-7542040D03*
D37*
X136136220Y-7542040D03*
D38*
X22485000Y-68190000D03*
X21835000Y-68190000D03*
X21185000Y-68190000D03*
X21185000Y-70090000D03*
X22485000Y-70090000D03*
X21835000Y-70090000D03*
X22485000Y-80890000D03*
X21835000Y-80890000D03*
X21185000Y-80890000D03*
X21185000Y-82790000D03*
X22485000Y-82790000D03*
X21835000Y-82790000D03*
D39*
X55395000Y-57710000D03*
X59395000Y-57710000D03*
D40*
X64380000Y-22690000D03*
X64380000Y-26690000D03*
X61840000Y-22690000D03*
X61840000Y-26690000D03*
X66920000Y-22690000D03*
X66920000Y-26690000D03*
X83430000Y-26500000D03*
X83430000Y-30500000D03*
X50410000Y-55710000D03*
X50410000Y-59710000D03*
X45330000Y-59710000D03*
X45330000Y-55710000D03*
X20565000Y-7450000D03*
X20565000Y-11450000D03*
X99305000Y-88285000D03*
X99305000Y-84285000D03*
X101845000Y-84285000D03*
X101845000Y-88285000D03*
D39*
X68285000Y-70410000D03*
X64285000Y-70410000D03*
X67650000Y-60885000D03*
X63650000Y-60885000D03*
X58125000Y-11990000D03*
X54125000Y-11990000D03*
X50505000Y-11990000D03*
X46505000Y-11990000D03*
X58125000Y-14530000D03*
X54125000Y-14530000D03*
X50505000Y-14530000D03*
X46505000Y-14530000D03*
X54125000Y-21515000D03*
X58125000Y-21515000D03*
X46505000Y-21515000D03*
X50505000Y-21515000D03*
D40*
X42790000Y-53170000D03*
X42790000Y-57170000D03*
D39*
X47330000Y-30405000D03*
X43330000Y-30405000D03*
D40*
X23105000Y-22690000D03*
X23105000Y-26690000D03*
D39*
X43330000Y-32945000D03*
X47330000Y-32945000D03*
D40*
X51045000Y-93365000D03*
X51045000Y-89365000D03*
X48505000Y-93365000D03*
X48505000Y-89365000D03*
X45965000Y-93365000D03*
X45965000Y-89365000D03*
X43425000Y-93365000D03*
X43425000Y-89365000D03*
X35170000Y-65870000D03*
X35170000Y-69870000D03*
X32630000Y-65870000D03*
X32630000Y-69870000D03*
X30090000Y-65870000D03*
X30090000Y-69870000D03*
X27550000Y-65870000D03*
X27550000Y-69870000D03*
X29455000Y-93365000D03*
X29455000Y-89365000D03*
X31995000Y-93365000D03*
X31995000Y-89365000D03*
X34535000Y-93365000D03*
X34535000Y-89365000D03*
X37075000Y-93365000D03*
X37075000Y-89365000D03*
X47870000Y-65870000D03*
X47870000Y-69870000D03*
X40250000Y-65870000D03*
X40250000Y-69870000D03*
X42790000Y-65870000D03*
X42790000Y-69870000D03*
X45330000Y-65870000D03*
X45330000Y-69870000D03*
X25645000Y-22690000D03*
X25645000Y-26690000D03*
D39*
X70190000Y-39295000D03*
X66190000Y-39295000D03*
X50315000Y-39295000D03*
X54315000Y-39295000D03*
X77175000Y-67235000D03*
X73175000Y-67235000D03*
X36345000Y-30405000D03*
X40345000Y-30405000D03*
D40*
X105020000Y-34945000D03*
X105020000Y-30945000D03*
D41*
X111410640Y-80570000D03*
X116409360Y-80570000D03*
D42*
X134370000Y-81205000D03*
X126470000Y-81205000D03*
X134370000Y-67235000D03*
X126470000Y-67235000D03*
X134370000Y-41835000D03*
X126470000Y-41835000D03*
X134370000Y-27865000D03*
X126470000Y-27865000D03*
D43*
X79927500Y-58827500D03*
X80427500Y-58827500D03*
X80927500Y-58827500D03*
X81427500Y-58827500D03*
X81927500Y-58827500D03*
X82427500Y-58827500D03*
X82927500Y-58827500D03*
X83427500Y-58827500D03*
X83927500Y-58827500D03*
X84427500Y-58827500D03*
X84927500Y-58827500D03*
X85427500Y-58827500D03*
X85927500Y-58827500D03*
X86427500Y-58827500D03*
X86927500Y-58827500D03*
X87427500Y-58827500D03*
X87927500Y-58827500D03*
X88427500Y-58827500D03*
X88927500Y-58827500D03*
X89427500Y-58827500D03*
X89927500Y-58827500D03*
X90427500Y-58827500D03*
X90927500Y-58827500D03*
X91427500Y-58827500D03*
X91927500Y-58827500D03*
D44*
X93827500Y-56927500D03*
X93827500Y-56427500D03*
X93827500Y-55927500D03*
X93827500Y-55427500D03*
X93827500Y-54927500D03*
X93827500Y-54427500D03*
X93827500Y-53927500D03*
X93827500Y-53427500D03*
X93827500Y-52927500D03*
X93827500Y-52427500D03*
X93827500Y-51927500D03*
X93827500Y-51427500D03*
X93827500Y-50927500D03*
X93827500Y-50427500D03*
X93827500Y-49927500D03*
X93827500Y-49427500D03*
X93827500Y-48927500D03*
X93827500Y-48427500D03*
X93827500Y-47927500D03*
X93827500Y-47427500D03*
X93827500Y-46927500D03*
X93827500Y-46427500D03*
X93827500Y-45927500D03*
X93827500Y-45427500D03*
X93827500Y-44927500D03*
D43*
X91927500Y-43027500D03*
X91427500Y-43027500D03*
X90927500Y-43027500D03*
X90427500Y-43027500D03*
X89927500Y-43027500D03*
X89427500Y-43027500D03*
X88927500Y-43027500D03*
X88427500Y-43027500D03*
X87927500Y-43027500D03*
X87427500Y-43027500D03*
X86927500Y-43027500D03*
X86427500Y-43027500D03*
X85927500Y-43027500D03*
X85427500Y-43027500D03*
X84927500Y-43027500D03*
X84427500Y-43027500D03*
X83927500Y-43027500D03*
X83427500Y-43027500D03*
X82927500Y-43027500D03*
X82427500Y-43027500D03*
X81927500Y-43027500D03*
X81427500Y-43027500D03*
X80927500Y-43027500D03*
X80427500Y-43027500D03*
X79927500Y-43027500D03*
D44*
X78027500Y-44927500D03*
X78027500Y-45427500D03*
X78027500Y-45927500D03*
X78027500Y-46427500D03*
X78027500Y-46927500D03*
X78027500Y-47427500D03*
X78027500Y-47927500D03*
X78027500Y-48427500D03*
X78027500Y-48927500D03*
X78027500Y-49427500D03*
X78027500Y-49927500D03*
X78027500Y-50427500D03*
X78027500Y-50927500D03*
X78027500Y-51427500D03*
X78027500Y-51927500D03*
X78027500Y-52427500D03*
X78027500Y-52927500D03*
X78027500Y-53427500D03*
X78027500Y-53927500D03*
X78027500Y-54427500D03*
X78027500Y-54927500D03*
X78027500Y-55427500D03*
X78027500Y-55927500D03*
X78027500Y-56427500D03*
X78027500Y-56927500D03*
D45*
X67875000Y-11500000D03*
X62155000Y-11500000D03*
X67875000Y-7400000D03*
X62155000Y-7400000D03*
D46*
X152155000Y-21830000D03*
X152155000Y-27550000D03*
X148055000Y-21830000D03*
X148055000Y-27550000D03*
X149960000Y-49775000D03*
X149960000Y-44055000D03*
X154060000Y-49775000D03*
X154060000Y-44055000D03*
X154060000Y-59295000D03*
X154060000Y-65015000D03*
X149960000Y-59295000D03*
X149960000Y-65015000D03*
X148690000Y-89145000D03*
X148690000Y-83425000D03*
X152790000Y-89145000D03*
X152790000Y-83425000D03*
D47*
X81525000Y-19610000D03*
D48*
X81525000Y-22150000D03*
D47*
X16755000Y-7545000D03*
D48*
X14215000Y-7545000D03*
D47*
X78350000Y-31675000D03*
D48*
X78350000Y-34215000D03*
D47*
X23740000Y-13260000D03*
D48*
X23740000Y-10720000D03*
D47*
X27550000Y-13260000D03*
D48*
X27550000Y-10720000D03*
D47*
X84065000Y-19610000D03*
D48*
X84065000Y-22150000D03*
D49*
X136770000Y-18340000D03*
D50*
X141770000Y-18340000D03*
D49*
X141850000Y-53900000D03*
D50*
X136850000Y-53900000D03*
D49*
X141850000Y-90730000D03*
D50*
X136850000Y-90730000D03*
D51*
X100575000Y-94540000D03*
D28*
X100575000Y-92040000D03*
D51*
X85970000Y-6275000D03*
D28*
X85970000Y-8775000D03*
D52*
X107560000Y-90095000D03*
D53*
X119910000Y-90095000D03*
D54*
X74540000Y-31675000D03*
D55*
X74540000Y-34215000D03*
X72000000Y-31675000D03*
X72000000Y-34215000D03*
X69460000Y-31675000D03*
X69460000Y-34215000D03*
X66920000Y-31675000D03*
X66920000Y-34215000D03*
X64380000Y-31675000D03*
X64380000Y-34215000D03*
X61840000Y-31675000D03*
X61840000Y-34215000D03*
X59300000Y-31675000D03*
X59300000Y-34215000D03*
X56760000Y-31675000D03*
X56760000Y-34215000D03*
X54220000Y-31675000D03*
X54220000Y-34215000D03*
X51680000Y-31675000D03*
X51680000Y-34215000D03*
D21*
X156455000Y-12625000D03*
D22*
X156455000Y-15165000D03*
X156455000Y-17705000D03*
X156455000Y-20245000D03*
X156455000Y-22785000D03*
D56*
X31995000Y-7545000D03*
D57*
X34535000Y-7545000D03*
X37075000Y-7545000D03*
X39615000Y-7545000D03*
X42155000Y-7545000D03*
D21*
X156455000Y-29770000D03*
D22*
X156455000Y-32310000D03*
X156455000Y-34850000D03*
X156455000Y-37390000D03*
X156455000Y-39930000D03*
D21*
X156455000Y-69140000D03*
D22*
X156455000Y-71680000D03*
X156455000Y-74220000D03*
X156455000Y-76760000D03*
X156455000Y-79300000D03*
D56*
X47235000Y-7545000D03*
D57*
X49775000Y-7545000D03*
X52315000Y-7545000D03*
X54855000Y-7545000D03*
X57395000Y-7545000D03*
D58*
X115180000Y-38660000D03*
D59*
X117720000Y-38660000D03*
X115180000Y-41200000D03*
X117720000Y-41200000D03*
X115180000Y-43740000D03*
X117720000Y-43740000D03*
X115180000Y-46280000D03*
X117720000Y-46280000D03*
X115180000Y-48820000D03*
X117720000Y-48820000D03*
X115180000Y-51360000D03*
X117720000Y-51360000D03*
X115180000Y-53900000D03*
X117720000Y-53900000D03*
X115180000Y-56440000D03*
X117720000Y-56440000D03*
X115180000Y-58980000D03*
X117720000Y-58980000D03*
X115180000Y-61520000D03*
X117720000Y-61520000D03*
D60*
X112640000Y-30300000D03*
X112640000Y-9800000D03*
D61*
X96130000Y-74220000D03*
X101210000Y-29135000D03*
X101210000Y-26595000D03*
X101210000Y-41835000D03*
X58030000Y-49455000D03*
X42790000Y-38025000D03*
X60570000Y-49455000D03*
X47870000Y-41835000D03*
X51680000Y-46915000D03*
X63110000Y-49455000D03*
X73270000Y-46915000D03*
X45330000Y-38025000D03*
X60570000Y-46915000D03*
X51680000Y-51995000D03*
X45330000Y-49455000D03*
X45330000Y-51995000D03*
X111370000Y-53900000D03*
X106925000Y-58345000D03*
X25645000Y-95175000D03*
X20565000Y-95175000D03*
X72635000Y-95175000D03*
X70095000Y-95175000D03*
X67555000Y-95175000D03*
X75175000Y-95175000D03*
X23105000Y-95175000D03*
X18025000Y-95175000D03*
X112640000Y-66600000D03*
X104385000Y-58345000D03*
X101845000Y-58345000D03*
X112640000Y-69140000D03*
X112640000Y-71680000D03*
X96130000Y-71680000D03*
X101210000Y-24055000D03*
X101210000Y-34215000D03*
X101210000Y-39295000D03*
X101210000Y-31675000D03*
X101210000Y-36755000D03*
X111370000Y-56440000D03*
D62*
X55770000Y-54789000D03*
X59020000Y-54789000D03*
D21*
X25645000Y-42470000D03*
D63*
X25645000Y-45010000D03*
X25645000Y-52630000D03*
X25645000Y-57710000D03*
D39*
X101750000Y-77395000D03*
X105750000Y-77395000D03*
D40*
X120895000Y-58440000D03*
X120895000Y-54440000D03*
D64*
X131900000Y-70645000D03*
X131900000Y-71295000D03*
X131900000Y-71945000D03*
X131900000Y-72595000D03*
X131900000Y-73245000D03*
X131900000Y-73895000D03*
X131900000Y-74545000D03*
X131900000Y-75195000D03*
X131900000Y-75845000D03*
X131900000Y-76495000D03*
X131900000Y-77145000D03*
X131900000Y-77795000D03*
X139100000Y-77795000D03*
X139100000Y-77145000D03*
X139100000Y-76495000D03*
X139100000Y-75845000D03*
X139100000Y-75195000D03*
X139100000Y-74545000D03*
X139100000Y-73895000D03*
X139100000Y-73245000D03*
X139100000Y-72595000D03*
X139100000Y-71945000D03*
X139100000Y-71295000D03*
X139100000Y-70645000D03*
D65*
X134750000Y-74220000D03*
X136250000Y-74220000D03*
X136250000Y-72820000D03*
X134750000Y-72820000D03*
X134750000Y-75620000D03*
X136250000Y-75620000D03*
D64*
X131900000Y-31275000D03*
X131900000Y-31925000D03*
X131900000Y-32575000D03*
X131900000Y-33225000D03*
X131900000Y-33875000D03*
X131900000Y-34525000D03*
X131900000Y-35175000D03*
X131900000Y-35825000D03*
X131900000Y-36475000D03*
X131900000Y-37125000D03*
X131900000Y-37775000D03*
X131900000Y-38425000D03*
X139100000Y-38425000D03*
X139100000Y-37775000D03*
X139100000Y-37125000D03*
X139100000Y-36475000D03*
X139100000Y-35825000D03*
X139100000Y-35175000D03*
X139100000Y-34525000D03*
X139100000Y-33875000D03*
X139100000Y-33225000D03*
X139100000Y-32575000D03*
X139100000Y-31925000D03*
X139100000Y-31275000D03*
D65*
X134750000Y-34850000D03*
X136250000Y-34850000D03*
X136250000Y-33450000D03*
X134750000Y-33450000D03*
X134750000Y-36250000D03*
X136250000Y-36250000D03*
D13*
X10416000Y-13875000D03*
X10416000Y-11375000D03*
X8416000Y-11375000D03*
X8416000Y-13875000D03*
D66*
X5706000Y-18645000D03*
X5706000Y-6605000D03*
D67*
X37565000Y-43760000D03*
X37565000Y-44260000D03*
X37565000Y-44760000D03*
X37565000Y-45260000D03*
X37565000Y-45760000D03*
X37565000Y-46260000D03*
D68*
X38365000Y-47060000D03*
X38865000Y-47060000D03*
X39365000Y-47060000D03*
X39865000Y-47060000D03*
X40365000Y-47060000D03*
X40865000Y-47060000D03*
D67*
X41665000Y-46260000D03*
X41665000Y-45760000D03*
X41665000Y-45260000D03*
X41665000Y-44760000D03*
X41665000Y-44260000D03*
X41665000Y-43760000D03*
D68*
X40865000Y-42960000D03*
X40365000Y-42960000D03*
X39865000Y-42960000D03*
X39365000Y-42960000D03*
X38865000Y-42960000D03*
X38365000Y-42960000D03*
D69*
X40265000Y-45660000D03*
X40265000Y-44360000D03*
X38965000Y-45660000D03*
X38965000Y-44360000D03*
D31*
X93590000Y-40025000D03*
X93590000Y-36025000D03*
M02*
