G04 #@! TF.FileFunction,Soldermask,Top*
%FSLAX46Y46*%
G04 Gerber Fmt 4.6, Leading zero omitted, Abs format (unit mm)*
G04 Created by KiCad (PCBNEW 4.0.5) date 02/20/17 23:04:05*
%MOMM*%
%LPD*%
G01*
G04 APERTURE LIST*
%ADD10C,0.100000*%
%ADD11R,2.032000X1.727200*%
%ADD12O,2.032000X1.727200*%
%ADD13C,6.500000*%
%ADD14R,2.500000X1.500000*%
%ADD15O,2.500000X1.500000*%
%ADD16C,1.700000*%
%ADD17C,3.170000*%
%ADD18R,1.270000X0.406400*%
%ADD19R,1.198880X1.399540*%
%ADD20R,1.000760X1.399540*%
%ADD21R,0.508000X1.143000*%
%ADD22C,3.200000*%
%ADD23C,3.300000*%
%ADD24C,1.524000*%
%ADD25C,1.500000*%
%ADD26C,2.500000*%
%ADD27C,1.600000*%
%ADD28R,1.400000X1.200000*%
%ADD29R,1.200000X1.400000*%
%ADD30R,0.508000X1.543000*%
%ADD31R,1.543000X0.508000*%
%ADD32R,1.950000X0.600000*%
%ADD33R,0.350000X0.600000*%
%ADD34R,3.500120X1.800860*%
%ADD35R,0.280000X1.500000*%
%ADD36R,1.500000X0.280000*%
%ADD37R,1.500000X0.900000*%
%ADD38R,0.900000X1.500000*%
%ADD39R,2.032000X2.032000*%
%ADD40O,2.032000X2.032000*%
%ADD41R,5.000000X1.800000*%
%ADD42R,5.000000X1.000000*%
%ADD43R,1.727200X2.032000*%
%ADD44O,1.727200X2.032000*%
%ADD45R,2.000000X1.727200*%
%ADD46O,2.000000X1.727200*%
%ADD47C,1.900000*%
%ADD48C,1.800000*%
%ADD49R,1.150000X2.700000*%
%ADD50O,2.500000X1.727200*%
%ADD51R,1.750000X0.400000*%
%ADD52R,1.500000X1.500000*%
%ADD53C,4.000000*%
%ADD54R,0.850000X0.230000*%
%ADD55R,0.230000X0.850000*%
%ADD56R,1.300000X1.300000*%
%ADD57R,1.600000X1.600000*%
%ADD58R,2.000000X2.000000*%
%ADD59C,2.000000*%
%ADD60R,1.524000X2.032000*%
%ADD61R,2.032000X1.524000*%
%ADD62R,1.000000X1.600000*%
%ADD63R,1.600000X1.000000*%
%ADD64R,0.900000X1.700000*%
%ADD65R,1.700000X0.900000*%
%ADD66R,0.900000X0.800000*%
%ADD67R,0.800000X0.900000*%
%ADD68O,1.501140X2.499360*%
%ADD69R,1.700000X1.700000*%
%ADD70R,1.000000X2.500000*%
%ADD71R,0.700000X1.300000*%
%ADD72R,1.300000X0.700000*%
G04 APERTURE END LIST*
D10*
X55000000Y-135000000D02*
X55000000Y-35000000D01*
X215000000Y-135000000D02*
X55000000Y-135000000D01*
X215000000Y-35000000D02*
X215000000Y-135000000D01*
X55000000Y-35000000D02*
X215000000Y-35000000D01*
D11*
X113000000Y-121000000D03*
D12*
X113000000Y-118460000D03*
X113000000Y-115920000D03*
X113000000Y-113380000D03*
X113000000Y-110840000D03*
X113000000Y-108300000D03*
X113000000Y-105760000D03*
X113000000Y-103220000D03*
X113000000Y-100680000D03*
X113000000Y-98140000D03*
D13*
X63000000Y-126000000D03*
X63000000Y-93000000D03*
D14*
X131445000Y-43180000D03*
D15*
X131445000Y-45720000D03*
X131445000Y-48260000D03*
D16*
X69850000Y-83820000D03*
X69850000Y-81280000D03*
X67310000Y-80010000D03*
X67310000Y-82550000D03*
D17*
X60960000Y-86995000D03*
X60960000Y-76835000D03*
D16*
X67310000Y-85090000D03*
X69850000Y-78740000D03*
D18*
X123952000Y-114046000D03*
X123952000Y-113411000D03*
X123952000Y-112750600D03*
X123952000Y-112090200D03*
X123952000Y-111455200D03*
X123952000Y-110794800D03*
X123952000Y-110134400D03*
X123952000Y-109499400D03*
X123952000Y-108839000D03*
X123952000Y-108204000D03*
X118618000Y-108204000D03*
X118618000Y-108839000D03*
X118618000Y-109499400D03*
X118618000Y-110134400D03*
X118618000Y-110794800D03*
X118618000Y-111455200D03*
X118618000Y-112090200D03*
X118618000Y-112750600D03*
X118618000Y-113411000D03*
X118618000Y-114046000D03*
D19*
X71889620Y-46525180D03*
D20*
X70170040Y-46525180D03*
X70170040Y-48724820D03*
X72069960Y-48724820D03*
D21*
X155575000Y-106680000D03*
X156845000Y-106680000D03*
X158115000Y-106680000D03*
X159385000Y-106680000D03*
X160655000Y-106680000D03*
X161925000Y-106680000D03*
X163195000Y-106680000D03*
X164465000Y-106680000D03*
X164465000Y-96520000D03*
X163195000Y-96520000D03*
X161925000Y-96520000D03*
X160655000Y-96520000D03*
X159385000Y-96520000D03*
X158115000Y-96520000D03*
X156845000Y-96520000D03*
X155575000Y-96520000D03*
D22*
X212000000Y-128000000D03*
X58000000Y-132000000D03*
X148000000Y-42000000D03*
X212000000Y-42000000D03*
X148000000Y-128000000D03*
X58000000Y-38000000D03*
D16*
X69850000Y-118745000D03*
X69850000Y-116205000D03*
X67310000Y-114935000D03*
X67310000Y-117475000D03*
D17*
X60960000Y-120650000D03*
X60960000Y-113030000D03*
D16*
X69850000Y-104140000D03*
X69850000Y-101600000D03*
X67310000Y-100330000D03*
X67310000Y-102870000D03*
D17*
X60960000Y-106045000D03*
X60960000Y-98425000D03*
D23*
X61595000Y-70470000D03*
X61595000Y-59070000D03*
D24*
X72455000Y-60325000D03*
D25*
X74995000Y-61595000D03*
X72455000Y-62865000D03*
X74995000Y-64135000D03*
X72455000Y-65405000D03*
X74995000Y-66675000D03*
X72455000Y-67945000D03*
D26*
X65295000Y-72520000D03*
X65295000Y-57020000D03*
D27*
X57215000Y-71210000D03*
X57215000Y-60870000D03*
X57215000Y-68670000D03*
X57215000Y-58330000D03*
D25*
X74995000Y-69215000D03*
D28*
X128905000Y-98890000D03*
X128905000Y-96690000D03*
X131445000Y-98890000D03*
X131445000Y-96690000D03*
D29*
X91270000Y-88900000D03*
X89070000Y-88900000D03*
X91270000Y-86360000D03*
X89070000Y-86360000D03*
D14*
X140335000Y-127000000D03*
D15*
X140335000Y-124460000D03*
X140335000Y-121920000D03*
D14*
X182245000Y-43180000D03*
D15*
X182245000Y-45720000D03*
X182245000Y-48260000D03*
D30*
X95250000Y-55680000D03*
X92710000Y-55680000D03*
X91440000Y-55680000D03*
X90170000Y-55680000D03*
X88900000Y-55680000D03*
X87630000Y-55680000D03*
X86360000Y-55680000D03*
X86360000Y-49730000D03*
X87630000Y-49730000D03*
X88900000Y-49730000D03*
X90170000Y-49730000D03*
X91440000Y-49730000D03*
X92710000Y-49730000D03*
X93980000Y-49730000D03*
X95250000Y-49730000D03*
X93980000Y-55680000D03*
D31*
X91240000Y-111125000D03*
X91240000Y-113665000D03*
X91240000Y-114935000D03*
X91240000Y-116205000D03*
X91240000Y-117475000D03*
X91240000Y-118745000D03*
X91240000Y-120015000D03*
X85290000Y-120015000D03*
X85290000Y-118745000D03*
X85290000Y-117475000D03*
X85290000Y-116205000D03*
X85290000Y-114935000D03*
X85290000Y-113665000D03*
X85290000Y-112395000D03*
X85290000Y-111125000D03*
X91240000Y-112395000D03*
X103940000Y-111125000D03*
X103940000Y-113665000D03*
X103940000Y-114935000D03*
X103940000Y-116205000D03*
X103940000Y-117475000D03*
X103940000Y-118745000D03*
X103940000Y-120015000D03*
X97990000Y-120015000D03*
X97990000Y-118745000D03*
X97990000Y-117475000D03*
X97990000Y-116205000D03*
X97990000Y-114935000D03*
X97990000Y-113665000D03*
X97990000Y-112395000D03*
X97990000Y-111125000D03*
X103940000Y-112395000D03*
D32*
X152020000Y-65405000D03*
X152020000Y-64135000D03*
X152020000Y-62865000D03*
X152020000Y-61595000D03*
X152020000Y-60325000D03*
X152020000Y-59055000D03*
X152020000Y-57785000D03*
X152020000Y-56515000D03*
X152020000Y-55245000D03*
X152020000Y-53975000D03*
X142620000Y-53975000D03*
X142620000Y-55245000D03*
X142620000Y-56515000D03*
X142620000Y-57785000D03*
X142620000Y-59055000D03*
X142620000Y-60325000D03*
X142620000Y-61595000D03*
X142620000Y-62865000D03*
X142620000Y-64135000D03*
X142620000Y-65405000D03*
D33*
X77485000Y-103190000D03*
X76835000Y-103190000D03*
X76185000Y-103190000D03*
X76185000Y-105090000D03*
X77485000Y-105090000D03*
X76835000Y-105090000D03*
X77485000Y-115890000D03*
X76835000Y-115890000D03*
X76185000Y-115890000D03*
X76185000Y-117790000D03*
X77485000Y-117790000D03*
X76835000Y-117790000D03*
D34*
X166410640Y-115570000D03*
X171409360Y-115570000D03*
D35*
X134927500Y-93827500D03*
X135427500Y-93827500D03*
X135927500Y-93827500D03*
X136427500Y-93827500D03*
X136927500Y-93827500D03*
X137427500Y-93827500D03*
X137927500Y-93827500D03*
X138427500Y-93827500D03*
X138927500Y-93827500D03*
X139427500Y-93827500D03*
X139927500Y-93827500D03*
X140427500Y-93827500D03*
X140927500Y-93827500D03*
X141427500Y-93827500D03*
X141927500Y-93827500D03*
X142427500Y-93827500D03*
X142927500Y-93827500D03*
X143427500Y-93827500D03*
X143927500Y-93827500D03*
X144427500Y-93827500D03*
X144927500Y-93827500D03*
X145427500Y-93827500D03*
X145927500Y-93827500D03*
X146427500Y-93827500D03*
X146927500Y-93827500D03*
D36*
X148827500Y-91927500D03*
X148827500Y-91427500D03*
X148827500Y-90927500D03*
X148827500Y-90427500D03*
X148827500Y-89927500D03*
X148827500Y-89427500D03*
X148827500Y-88927500D03*
X148827500Y-88427500D03*
X148827500Y-87927500D03*
X148827500Y-87427500D03*
X148827500Y-86927500D03*
X148827500Y-86427500D03*
X148827500Y-85927500D03*
X148827500Y-85427500D03*
X148827500Y-84927500D03*
X148827500Y-84427500D03*
X148827500Y-83927500D03*
X148827500Y-83427500D03*
X148827500Y-82927500D03*
X148827500Y-82427500D03*
X148827500Y-81927500D03*
X148827500Y-81427500D03*
X148827500Y-80927500D03*
X148827500Y-80427500D03*
X148827500Y-79927500D03*
D35*
X146927500Y-78027500D03*
X146427500Y-78027500D03*
X145927500Y-78027500D03*
X145427500Y-78027500D03*
X144927500Y-78027500D03*
X144427500Y-78027500D03*
X143927500Y-78027500D03*
X143427500Y-78027500D03*
X142927500Y-78027500D03*
X142427500Y-78027500D03*
X141927500Y-78027500D03*
X141427500Y-78027500D03*
X140927500Y-78027500D03*
X140427500Y-78027500D03*
X139927500Y-78027500D03*
X139427500Y-78027500D03*
X138927500Y-78027500D03*
X138427500Y-78027500D03*
X137927500Y-78027500D03*
X137427500Y-78027500D03*
X136927500Y-78027500D03*
X136427500Y-78027500D03*
X135927500Y-78027500D03*
X135427500Y-78027500D03*
X134927500Y-78027500D03*
D36*
X133027500Y-79927500D03*
X133027500Y-80427500D03*
X133027500Y-80927500D03*
X133027500Y-81427500D03*
X133027500Y-81927500D03*
X133027500Y-82427500D03*
X133027500Y-82927500D03*
X133027500Y-83427500D03*
X133027500Y-83927500D03*
X133027500Y-84427500D03*
X133027500Y-84927500D03*
X133027500Y-85427500D03*
X133027500Y-85927500D03*
X133027500Y-86427500D03*
X133027500Y-86927500D03*
X133027500Y-87427500D03*
X133027500Y-87927500D03*
X133027500Y-88427500D03*
X133027500Y-88927500D03*
X133027500Y-89427500D03*
X133027500Y-89927500D03*
X133027500Y-90427500D03*
X133027500Y-90927500D03*
X133027500Y-91427500D03*
X133027500Y-91927500D03*
D37*
X122875000Y-46500000D03*
X117155000Y-46500000D03*
X122875000Y-42400000D03*
X117155000Y-42400000D03*
D38*
X207155000Y-56830000D03*
X207155000Y-62550000D03*
X203055000Y-56830000D03*
X203055000Y-62550000D03*
X204960000Y-84775000D03*
X204960000Y-79055000D03*
X209060000Y-84775000D03*
X209060000Y-79055000D03*
X209060000Y-94295000D03*
X209060000Y-100015000D03*
X204960000Y-94295000D03*
X204960000Y-100015000D03*
X203690000Y-124145000D03*
X203690000Y-118425000D03*
X207790000Y-124145000D03*
X207790000Y-118425000D03*
D39*
X71755000Y-42545000D03*
D40*
X69215000Y-42545000D03*
D39*
X128270000Y-67310000D03*
D40*
X128270000Y-69850000D03*
D39*
X78740000Y-48260000D03*
D40*
X78740000Y-45720000D03*
D39*
X82550000Y-48260000D03*
D40*
X82550000Y-45720000D03*
D41*
X162560000Y-125095000D03*
D42*
X174910000Y-125095000D03*
D11*
X211455000Y-47625000D03*
D12*
X211455000Y-50165000D03*
X211455000Y-52705000D03*
X211455000Y-55245000D03*
X211455000Y-57785000D03*
D43*
X86995000Y-42545000D03*
D44*
X89535000Y-42545000D03*
X92075000Y-42545000D03*
X94615000Y-42545000D03*
X97155000Y-42545000D03*
D11*
X211455000Y-64770000D03*
D12*
X211455000Y-67310000D03*
X211455000Y-69850000D03*
X211455000Y-72390000D03*
X211455000Y-74930000D03*
D11*
X211455000Y-104140000D03*
D12*
X211455000Y-106680000D03*
X211455000Y-109220000D03*
X211455000Y-111760000D03*
X211455000Y-114300000D03*
D43*
X102235000Y-42545000D03*
D44*
X104775000Y-42545000D03*
X107315000Y-42545000D03*
X109855000Y-42545000D03*
X112395000Y-42545000D03*
D45*
X170180000Y-73660000D03*
D46*
X172720000Y-73660000D03*
X170180000Y-76200000D03*
X172720000Y-76200000D03*
X170180000Y-78740000D03*
X172720000Y-78740000D03*
X170180000Y-81280000D03*
X172720000Y-81280000D03*
X170180000Y-83820000D03*
X172720000Y-83820000D03*
X170180000Y-86360000D03*
X172720000Y-86360000D03*
X170180000Y-88900000D03*
X172720000Y-88900000D03*
X170180000Y-91440000D03*
X172720000Y-91440000D03*
X170180000Y-93980000D03*
X172720000Y-93980000D03*
X170180000Y-96520000D03*
X172720000Y-96520000D03*
D47*
X167640000Y-65300000D03*
X167640000Y-44800000D03*
D48*
X151130000Y-109220000D03*
X156210000Y-64135000D03*
X156210000Y-61595000D03*
X156210000Y-76835000D03*
X113030000Y-84455000D03*
X97790000Y-73025000D03*
X115570000Y-84455000D03*
X104140000Y-76835000D03*
X109220000Y-81915000D03*
X118110000Y-84455000D03*
X118110000Y-81915000D03*
X100330000Y-73025000D03*
X115570000Y-81915000D03*
X106680000Y-86995000D03*
X100330000Y-84455000D03*
X100330000Y-86995000D03*
X177800000Y-74930000D03*
X177800000Y-95250000D03*
X80645000Y-130175000D03*
X75565000Y-130175000D03*
X127635000Y-130175000D03*
X125095000Y-130175000D03*
X122555000Y-130175000D03*
X130175000Y-130175000D03*
X78105000Y-130175000D03*
X73025000Y-130175000D03*
X167640000Y-101600000D03*
X159385000Y-93345000D03*
X156845000Y-93345000D03*
X167640000Y-104140000D03*
X167640000Y-106680000D03*
X151130000Y-106680000D03*
X156210000Y-69215000D03*
X156210000Y-74295000D03*
X156210000Y-66675000D03*
X156210000Y-71755000D03*
X166370000Y-91440000D03*
D49*
X115850000Y-90170000D03*
X119100000Y-90170000D03*
D11*
X80645000Y-77470000D03*
D50*
X80645000Y-80010000D03*
X80645000Y-87630000D03*
X80645000Y-92710000D03*
D51*
X186900000Y-105645000D03*
X186900000Y-106295000D03*
X186900000Y-106945000D03*
X186900000Y-107595000D03*
X186900000Y-108245000D03*
X186900000Y-108895000D03*
X186900000Y-109545000D03*
X186900000Y-110195000D03*
X186900000Y-110845000D03*
X186900000Y-111495000D03*
X186900000Y-112145000D03*
X186900000Y-112795000D03*
X194100000Y-112795000D03*
X194100000Y-112145000D03*
X194100000Y-111495000D03*
X194100000Y-110845000D03*
X194100000Y-110195000D03*
X194100000Y-109545000D03*
X194100000Y-108895000D03*
X194100000Y-108245000D03*
X194100000Y-107595000D03*
X194100000Y-106945000D03*
X194100000Y-106295000D03*
X194100000Y-105645000D03*
D52*
X189750000Y-109220000D03*
X191250000Y-109220000D03*
X191250000Y-107820000D03*
X189750000Y-107820000D03*
X189750000Y-110620000D03*
X191250000Y-110620000D03*
D51*
X186900000Y-66275000D03*
X186900000Y-66925000D03*
X186900000Y-67575000D03*
X186900000Y-68225000D03*
X186900000Y-68875000D03*
X186900000Y-69525000D03*
X186900000Y-70175000D03*
X186900000Y-70825000D03*
X186900000Y-71475000D03*
X186900000Y-72125000D03*
X186900000Y-72775000D03*
X186900000Y-73425000D03*
X194100000Y-73425000D03*
X194100000Y-72775000D03*
X194100000Y-72125000D03*
X194100000Y-71475000D03*
X194100000Y-70825000D03*
X194100000Y-70175000D03*
X194100000Y-69525000D03*
X194100000Y-68875000D03*
X194100000Y-68225000D03*
X194100000Y-67575000D03*
X194100000Y-66925000D03*
X194100000Y-66275000D03*
D52*
X189750000Y-69850000D03*
X191250000Y-69850000D03*
X191250000Y-68450000D03*
X189750000Y-68450000D03*
X189750000Y-71250000D03*
X191250000Y-71250000D03*
D16*
X65416000Y-48875000D03*
X65416000Y-46375000D03*
X63416000Y-46375000D03*
X63416000Y-48875000D03*
D53*
X60706000Y-53645000D03*
X60706000Y-41605000D03*
D54*
X92565000Y-78760000D03*
X92565000Y-79260000D03*
X92565000Y-79760000D03*
X92565000Y-80260000D03*
X92565000Y-80760000D03*
X92565000Y-81260000D03*
D55*
X93365000Y-82060000D03*
X93865000Y-82060000D03*
X94365000Y-82060000D03*
X94865000Y-82060000D03*
X95365000Y-82060000D03*
X95865000Y-82060000D03*
D54*
X96665000Y-81260000D03*
X96665000Y-80760000D03*
X96665000Y-80260000D03*
X96665000Y-79760000D03*
X96665000Y-79260000D03*
X96665000Y-78760000D03*
D55*
X95865000Y-77960000D03*
X95365000Y-77960000D03*
X94865000Y-77960000D03*
X94365000Y-77960000D03*
X93865000Y-77960000D03*
X93365000Y-77960000D03*
D56*
X95265000Y-80660000D03*
X95265000Y-79360000D03*
X93965000Y-80660000D03*
X93965000Y-79360000D03*
D57*
X140970000Y-41275000D03*
D27*
X140970000Y-43775000D03*
D57*
X155575000Y-129540000D03*
D27*
X155575000Y-127040000D03*
D58*
X196850000Y-125730000D03*
D59*
X191850000Y-125730000D03*
D58*
X196850000Y-88900000D03*
D59*
X191850000Y-88900000D03*
D58*
X191770000Y-49530000D03*
D59*
X196770000Y-49530000D03*
D39*
X102870000Y-67310000D03*
D40*
X102870000Y-69850000D03*
D60*
X114046000Y-86995000D03*
X110744000Y-86995000D03*
X114046000Y-93345000D03*
X110744000Y-93345000D03*
D61*
X147320000Y-103251000D03*
X147320000Y-99949000D03*
D60*
X88011000Y-62865000D03*
X84709000Y-62865000D03*
D62*
X202795000Y-109855000D03*
X199795000Y-109855000D03*
X199795000Y-106680000D03*
X202795000Y-106680000D03*
X183745000Y-111760000D03*
X180745000Y-111760000D03*
X155980000Y-109220000D03*
X158980000Y-109220000D03*
D63*
X154940000Y-59285000D03*
X154940000Y-56285000D03*
D62*
X96955000Y-46835000D03*
X93955000Y-46835000D03*
X121055000Y-95885000D03*
X124055000Y-95885000D03*
X123420000Y-86995000D03*
X120420000Y-86995000D03*
X121690000Y-90805000D03*
X124690000Y-90805000D03*
X157710000Y-90170000D03*
X154710000Y-90170000D03*
D63*
X144780000Y-103100000D03*
X144780000Y-100100000D03*
D62*
X131850000Y-74295000D03*
X134850000Y-74295000D03*
D63*
X152400000Y-100100000D03*
X152400000Y-103100000D03*
X135890000Y-99925000D03*
X135890000Y-96925000D03*
D62*
X124865000Y-80645000D03*
X127865000Y-80645000D03*
D63*
X149860000Y-103100000D03*
X149860000Y-100100000D03*
D62*
X124865000Y-76835000D03*
X127865000Y-76835000D03*
D63*
X142240000Y-103100000D03*
X142240000Y-100100000D03*
D62*
X159615000Y-85090000D03*
X156615000Y-85090000D03*
X122325000Y-83820000D03*
X125325000Y-83820000D03*
X121055000Y-93345000D03*
X124055000Y-93345000D03*
D63*
X138430000Y-96925000D03*
X138430000Y-99925000D03*
D62*
X202795000Y-70485000D03*
X199795000Y-70485000D03*
X199795000Y-67310000D03*
X202795000Y-67310000D03*
X187730000Y-119380000D03*
X190730000Y-119380000D03*
D63*
X89535000Y-91210000D03*
X89535000Y-94210000D03*
X93980000Y-113260000D03*
X93980000Y-110260000D03*
X127000000Y-47855000D03*
X127000000Y-44855000D03*
X144780000Y-119785000D03*
X144780000Y-122785000D03*
D62*
X182650000Y-53975000D03*
X185650000Y-53975000D03*
X194715000Y-76200000D03*
X197715000Y-76200000D03*
X187730000Y-99060000D03*
X190730000Y-99060000D03*
X183745000Y-71755000D03*
X180745000Y-71755000D03*
X187730000Y-59690000D03*
X190730000Y-59690000D03*
X199795000Y-112395000D03*
X202795000Y-112395000D03*
X199795000Y-73025000D03*
X202795000Y-73025000D03*
X89970000Y-46835000D03*
X86970000Y-46835000D03*
D63*
X97790000Y-54205000D03*
X97790000Y-51205000D03*
D62*
X79780000Y-52070000D03*
X82780000Y-52070000D03*
X97385000Y-58420000D03*
X94385000Y-58420000D03*
D63*
X73025000Y-74700000D03*
X73025000Y-77700000D03*
X69215000Y-54840000D03*
X69215000Y-51840000D03*
D62*
X84860000Y-67945000D03*
X87860000Y-67945000D03*
X84860000Y-65405000D03*
X87860000Y-65405000D03*
X84860000Y-70485000D03*
X87860000Y-70485000D03*
X91845000Y-67945000D03*
X94845000Y-67945000D03*
D63*
X126365000Y-96290000D03*
X126365000Y-99290000D03*
D62*
X91845000Y-70485000D03*
X94845000Y-70485000D03*
D63*
X102870000Y-91210000D03*
X102870000Y-94210000D03*
X97790000Y-91210000D03*
X97790000Y-94210000D03*
D62*
X103275000Y-81280000D03*
X106275000Y-81280000D03*
X106450000Y-78740000D03*
X109450000Y-78740000D03*
X99925000Y-70485000D03*
X96925000Y-70485000D03*
D63*
X120015000Y-117245000D03*
X120015000Y-120245000D03*
X122555000Y-117245000D03*
X122555000Y-120245000D03*
X73025000Y-115340000D03*
X73025000Y-118340000D03*
X73025000Y-102640000D03*
X73025000Y-105640000D03*
D62*
X187730000Y-80010000D03*
X190730000Y-80010000D03*
X194715000Y-115570000D03*
X197715000Y-115570000D03*
X194715000Y-102870000D03*
X197715000Y-102870000D03*
X194715000Y-63500000D03*
X197715000Y-63500000D03*
D63*
X120650000Y-62460000D03*
X120650000Y-59460000D03*
X109855000Y-106450000D03*
X109855000Y-109450000D03*
X148590000Y-75795000D03*
X148590000Y-72795000D03*
D64*
X112575000Y-49530000D03*
X109675000Y-49530000D03*
X104955000Y-49530000D03*
X102055000Y-49530000D03*
D65*
X109220000Y-51890000D03*
X109220000Y-54790000D03*
X101600000Y-51890000D03*
X101600000Y-54790000D03*
D64*
X96975000Y-65405000D03*
X99875000Y-65405000D03*
D65*
X78105000Y-58240000D03*
X78105000Y-61140000D03*
D64*
X99875000Y-67945000D03*
X96975000Y-67945000D03*
D65*
X98425000Y-127815000D03*
X98425000Y-124915000D03*
X100965000Y-127815000D03*
X100965000Y-124915000D03*
X103505000Y-127815000D03*
X103505000Y-124915000D03*
X106045000Y-127815000D03*
X106045000Y-124915000D03*
X85090000Y-105230000D03*
X85090000Y-108130000D03*
X82550000Y-105230000D03*
X82550000Y-108130000D03*
X84455000Y-127815000D03*
X84455000Y-124915000D03*
X86995000Y-127815000D03*
X86995000Y-124915000D03*
X89535000Y-127815000D03*
X89535000Y-124915000D03*
X92075000Y-127815000D03*
X92075000Y-124915000D03*
X102870000Y-105230000D03*
X102870000Y-108130000D03*
X95250000Y-105230000D03*
X95250000Y-108130000D03*
X97790000Y-105230000D03*
X97790000Y-108130000D03*
X100330000Y-105230000D03*
X100330000Y-108130000D03*
X80645000Y-58240000D03*
X80645000Y-61140000D03*
D64*
X122735000Y-76835000D03*
X119835000Y-76835000D03*
X106500000Y-76200000D03*
X109400000Y-76200000D03*
X131625000Y-102235000D03*
X128725000Y-102235000D03*
X91895000Y-65405000D03*
X94795000Y-65405000D03*
X145870000Y-51435000D03*
X148770000Y-51435000D03*
X122735000Y-105410000D03*
X119835000Y-105410000D03*
D65*
X156845000Y-119835000D03*
X156845000Y-122735000D03*
X154305000Y-122735000D03*
X154305000Y-119835000D03*
X75565000Y-43000000D03*
X75565000Y-45900000D03*
X100330000Y-94160000D03*
X100330000Y-91260000D03*
X105410000Y-91260000D03*
X105410000Y-94160000D03*
X131445000Y-67130000D03*
X131445000Y-70030000D03*
X118110000Y-59510000D03*
X118110000Y-62410000D03*
X115570000Y-59510000D03*
X115570000Y-62410000D03*
X113030000Y-59510000D03*
X113030000Y-62410000D03*
D64*
X113845000Y-90170000D03*
X110945000Y-90170000D03*
X161110000Y-109220000D03*
X164010000Y-109220000D03*
D65*
X110490000Y-59510000D03*
X110490000Y-62410000D03*
X151130000Y-75745000D03*
X151130000Y-72845000D03*
D66*
X203565000Y-47940000D03*
X203565000Y-46040000D03*
X201565000Y-46990000D03*
D67*
X113345000Y-52340000D03*
X111445000Y-52340000D03*
X112395000Y-54340000D03*
X105725000Y-52340000D03*
X103825000Y-52340000D03*
X104775000Y-54340000D03*
X169860000Y-110125000D03*
X167960000Y-110125000D03*
X168910000Y-112125000D03*
D68*
X202565000Y-41275000D03*
X205105000Y-41275000D03*
X200025000Y-41275000D03*
D65*
X206375000Y-45540000D03*
X206375000Y-48440000D03*
D69*
X120650000Y-67310000D03*
D16*
X120650000Y-69850000D03*
X118110000Y-67310000D03*
X118110000Y-69850000D03*
X115570000Y-67310000D03*
X115570000Y-69850000D03*
X113030000Y-67310000D03*
X113030000Y-69850000D03*
X110490000Y-67310000D03*
X110490000Y-69850000D03*
D43*
X135255000Y-57150000D03*
D44*
X132715000Y-57150000D03*
X130175000Y-57150000D03*
D43*
X135255000Y-53975000D03*
D44*
X132715000Y-53975000D03*
X130175000Y-53975000D03*
D70*
X191680000Y-116205000D03*
X186780000Y-116205000D03*
X191680000Y-102235000D03*
X186780000Y-102235000D03*
D71*
X123505000Y-98425000D03*
X121605000Y-98425000D03*
D72*
X95250000Y-91760000D03*
X95250000Y-93660000D03*
D70*
X191680000Y-76835000D03*
X186780000Y-76835000D03*
X191680000Y-62865000D03*
X186780000Y-62865000D03*
D39*
X177800000Y-91440000D03*
D40*
X180340000Y-91440000D03*
D39*
X180340000Y-87630000D03*
D40*
X177800000Y-87630000D03*
D39*
X177800000Y-78740000D03*
D40*
X180340000Y-78740000D03*
D39*
X180340000Y-82550000D03*
D40*
X177800000Y-82550000D03*
D65*
X90170000Y-105230000D03*
X90170000Y-108130000D03*
X87630000Y-105230000D03*
X87630000Y-108130000D03*
D64*
X112575000Y-46990000D03*
X109675000Y-46990000D03*
X104955000Y-46990000D03*
X102055000Y-46990000D03*
X183695000Y-109220000D03*
X180795000Y-109220000D03*
X190680000Y-96520000D03*
X187780000Y-96520000D03*
X180795000Y-74295000D03*
X183695000Y-74295000D03*
X190680000Y-82550000D03*
X187780000Y-82550000D03*
M02*
