G04 #@! TF.FileFunction,Other,User*
%FSLAX46Y46*%
G04 Gerber Fmt 4.6, Leading zero omitted, Abs format (unit mm)*
G04 Created by KiCad (PCBNEW 4.0.5) date 02/20/17 23:04:05*
%MOMM*%
%LPD*%
G01*
G04 APERTURE LIST*
%ADD10C,0.100000*%
%ADD11C,0.150000*%
%ADD12C,0.050000*%
G04 APERTURE END LIST*
D10*
X55000000Y-135000000D02*
X55000000Y-35000000D01*
X215000000Y-135000000D02*
X55000000Y-135000000D01*
X215000000Y-35000000D02*
X215000000Y-135000000D01*
X55000000Y-35000000D02*
X215000000Y-35000000D01*
D11*
X115500000Y-129500000D02*
X55000000Y-129500000D01*
X55000000Y-129500000D02*
X55000000Y-89500000D01*
X55000000Y-89500000D02*
X115500000Y-89500000D01*
X115500000Y-89500000D02*
X115500000Y-129500000D01*
D12*
X115500000Y-122750000D02*
X115500000Y-96350000D01*
X128745000Y-39480000D02*
X136745000Y-39480000D01*
X128745000Y-51980000D02*
X128745000Y-39480000D01*
X136745000Y-51980000D02*
X128745000Y-51980000D01*
X136745000Y-39480000D02*
X136745000Y-51980000D01*
X215450000Y-128000000D02*
G75*
G03X215450000Y-128000000I-3450000J0D01*
G01*
X61450000Y-132000000D02*
G75*
G03X61450000Y-132000000I-3450000J0D01*
G01*
X151450000Y-42000000D02*
G75*
G03X151450000Y-42000000I-3450000J0D01*
G01*
X215450000Y-42000000D02*
G75*
G03X215450000Y-42000000I-3450000J0D01*
G01*
X151450000Y-128000000D02*
G75*
G03X151450000Y-128000000I-3450000J0D01*
G01*
X61450000Y-38000000D02*
G75*
G03X61450000Y-38000000I-3450000J0D01*
G01*
X143035000Y-130700000D02*
X135035000Y-130700000D01*
X143035000Y-118200000D02*
X143035000Y-130700000D01*
X135035000Y-118200000D02*
X143035000Y-118200000D01*
X135035000Y-130700000D02*
X135035000Y-118200000D01*
X179545000Y-39480000D02*
X187545000Y-39480000D01*
X179545000Y-51980000D02*
X179545000Y-39480000D01*
X187545000Y-51980000D02*
X179545000Y-51980000D01*
X187545000Y-39480000D02*
X187545000Y-51980000D01*
D10*
X96520000Y-53340000D02*
X95885000Y-53340000D01*
X95885000Y-53340000D02*
X95885000Y-52070000D01*
X95885000Y-52070000D02*
X96520000Y-52070000D01*
X96520000Y-55245000D02*
X85090000Y-55245000D01*
X85090000Y-55245000D02*
X85090000Y-50165000D01*
X85090000Y-50165000D02*
X96520000Y-50165000D01*
X96520000Y-50165000D02*
X96520000Y-55245000D01*
X88900000Y-109855000D02*
X88900000Y-110490000D01*
X88900000Y-110490000D02*
X87630000Y-110490000D01*
X87630000Y-110490000D02*
X87630000Y-109855000D01*
X90805000Y-109855000D02*
X90805000Y-121285000D01*
X90805000Y-121285000D02*
X85725000Y-121285000D01*
X85725000Y-121285000D02*
X85725000Y-109855000D01*
X85725000Y-109855000D02*
X90805000Y-109855000D01*
X101600000Y-109855000D02*
X101600000Y-110490000D01*
X101600000Y-110490000D02*
X100330000Y-110490000D01*
X100330000Y-110490000D02*
X100330000Y-109855000D01*
X103505000Y-109855000D02*
X103505000Y-121285000D01*
X103505000Y-121285000D02*
X98425000Y-121285000D01*
X98425000Y-121285000D02*
X98425000Y-109855000D01*
X98425000Y-109855000D02*
X103505000Y-109855000D01*
D12*
X153270000Y-66440000D02*
X153270000Y-52940000D01*
X141370000Y-66440000D02*
X141370000Y-52940000D01*
X153270000Y-66440000D02*
X141370000Y-66440000D01*
X153270000Y-52940000D02*
X141370000Y-52940000D01*
D10*
X78030605Y-103759000D02*
G75*
G03X78030605Y-103759000I-179605J0D01*
G01*
X78105000Y-104775000D02*
X75565000Y-104775000D01*
X75565000Y-103505000D02*
X78105000Y-103505000D01*
X78030605Y-116459000D02*
G75*
G03X78030605Y-116459000I-179605J0D01*
G01*
X78105000Y-117475000D02*
X75565000Y-117475000D01*
X75565000Y-116205000D02*
X78105000Y-116205000D01*
D11*
X166370000Y-114300000D02*
X166370000Y-116840000D01*
X168275000Y-113665000D02*
X166370000Y-115570000D01*
X166370000Y-115570000D02*
X168275000Y-117475000D01*
D12*
X164410000Y-113570000D02*
X173410000Y-113570000D01*
X173410000Y-113570000D02*
X173410000Y-117570000D01*
X173410000Y-117570000D02*
X164410000Y-117570000D01*
X164410000Y-117570000D02*
X164410000Y-113570000D01*
D10*
X135374714Y-93827500D02*
G75*
G03X135374714Y-93827500I-447214J0D01*
G01*
D12*
X132027500Y-94827500D02*
X149827500Y-94827500D01*
X132027500Y-77027500D02*
X149827500Y-77027500D01*
X132027500Y-94827500D02*
X132027500Y-77027500D01*
X149827500Y-94827500D02*
X149827500Y-77027500D01*
D10*
X118511609Y-42545000D02*
G75*
G03X118511609Y-42545000I-401609J0D01*
G01*
X122555000Y-41910000D02*
X122555000Y-46990000D01*
X122555000Y-46990000D02*
X117475000Y-46990000D01*
X117475000Y-46990000D02*
X117475000Y-41910000D01*
X117475000Y-41910000D02*
X122555000Y-41910000D01*
X203601609Y-61595000D02*
G75*
G03X203601609Y-61595000I-401609J0D01*
G01*
X202565000Y-57150000D02*
X207645000Y-57150000D01*
X207645000Y-57150000D02*
X207645000Y-62230000D01*
X207645000Y-62230000D02*
X202565000Y-62230000D01*
X202565000Y-62230000D02*
X202565000Y-57150000D01*
X209316609Y-80010000D02*
G75*
G03X209316609Y-80010000I-401609J0D01*
G01*
X209550000Y-84455000D02*
X204470000Y-84455000D01*
X204470000Y-84455000D02*
X204470000Y-79375000D01*
X204470000Y-79375000D02*
X209550000Y-79375000D01*
X209550000Y-79375000D02*
X209550000Y-84455000D01*
X205506609Y-99060000D02*
G75*
G03X205506609Y-99060000I-401609J0D01*
G01*
X204470000Y-94615000D02*
X209550000Y-94615000D01*
X209550000Y-94615000D02*
X209550000Y-99695000D01*
X209550000Y-99695000D02*
X204470000Y-99695000D01*
X204470000Y-99695000D02*
X204470000Y-94615000D01*
X208046609Y-119380000D02*
G75*
G03X208046609Y-119380000I-401609J0D01*
G01*
X208280000Y-123825000D02*
X203200000Y-123825000D01*
X203200000Y-123825000D02*
X203200000Y-118745000D01*
X203200000Y-118745000D02*
X208280000Y-118745000D01*
X208280000Y-118745000D02*
X208280000Y-123825000D01*
D12*
X73505000Y-40795000D02*
X67455000Y-40795000D01*
X73505000Y-44295000D02*
X67455000Y-44295000D01*
X73505000Y-40795000D02*
X73505000Y-44295000D01*
X67455000Y-40795000D02*
X67455000Y-44295000D01*
X126520000Y-65560000D02*
X126520000Y-71610000D01*
X130020000Y-65560000D02*
X130020000Y-71610000D01*
X126520000Y-65560000D02*
X130020000Y-65560000D01*
X126520000Y-71610000D02*
X130020000Y-71610000D01*
X80490000Y-50010000D02*
X80490000Y-43960000D01*
X76990000Y-50010000D02*
X76990000Y-43960000D01*
X80490000Y-50010000D02*
X76990000Y-50010000D01*
X80490000Y-43960000D02*
X76990000Y-43960000D01*
X84300000Y-50010000D02*
X84300000Y-43960000D01*
X80800000Y-50010000D02*
X80800000Y-43960000D01*
X84300000Y-50010000D02*
X80800000Y-50010000D01*
X84300000Y-43960000D02*
X80800000Y-43960000D01*
D10*
X174934139Y-125095000D02*
G75*
G03X174934139Y-125095000I-6024139J0D01*
G01*
X212090000Y-47625000D02*
G75*
G03X212090000Y-47625000I-635000J0D01*
G01*
D11*
X213487000Y-59055000D02*
X213487000Y-46355000D01*
X208407000Y-46355000D02*
X208407000Y-59055000D01*
X208407000Y-59055000D02*
X214503000Y-59055000D01*
X214503000Y-59055000D02*
X214503000Y-46355000D01*
X214503000Y-46355000D02*
X208407000Y-46355000D01*
D10*
X87630000Y-42545000D02*
G75*
G03X87630000Y-42545000I-635000J0D01*
G01*
D11*
X98425000Y-40513000D02*
X85725000Y-40513000D01*
X85725000Y-45593000D02*
X98425000Y-45593000D01*
X98425000Y-45593000D02*
X98425000Y-39497000D01*
X98425000Y-39497000D02*
X85725000Y-39497000D01*
X85725000Y-39497000D02*
X85725000Y-45593000D01*
D10*
X212090000Y-64770000D02*
G75*
G03X212090000Y-64770000I-635000J0D01*
G01*
D11*
X213487000Y-76200000D02*
X213487000Y-63500000D01*
X208407000Y-63500000D02*
X208407000Y-76200000D01*
X208407000Y-76200000D02*
X214503000Y-76200000D01*
X214503000Y-76200000D02*
X214503000Y-63500000D01*
X214503000Y-63500000D02*
X208407000Y-63500000D01*
D10*
X212090000Y-104140000D02*
G75*
G03X212090000Y-104140000I-635000J0D01*
G01*
D11*
X213487000Y-115570000D02*
X213487000Y-102870000D01*
X208407000Y-102870000D02*
X208407000Y-115570000D01*
X208407000Y-115570000D02*
X214503000Y-115570000D01*
X214503000Y-115570000D02*
X214503000Y-102870000D01*
X214503000Y-102870000D02*
X208407000Y-102870000D01*
D10*
X102870000Y-42545000D02*
G75*
G03X102870000Y-42545000I-635000J0D01*
G01*
D11*
X113665000Y-40513000D02*
X100965000Y-40513000D01*
X100965000Y-45593000D02*
X113665000Y-45593000D01*
X113665000Y-45593000D02*
X113665000Y-39497000D01*
X113665000Y-39497000D02*
X100965000Y-39497000D01*
X100965000Y-39497000D02*
X100965000Y-45593000D01*
D10*
X171078026Y-73660000D02*
G75*
G03X171078026Y-73660000I-898026J0D01*
G01*
D12*
X168430000Y-71910000D02*
X168430000Y-98310000D01*
X174480000Y-71910000D02*
X174480000Y-98310000D01*
X168430000Y-71910000D02*
X174480000Y-71910000D01*
X168430000Y-98310000D02*
X174480000Y-98310000D01*
D10*
X172720000Y-60960000D02*
X172720000Y-67310000D01*
X172720000Y-67310000D02*
X162560000Y-67310000D01*
X162560000Y-67310000D02*
X162560000Y-60960000D01*
X179087625Y-50800000D02*
G75*
G03X179087625Y-50800000I-11447625J0D01*
G01*
X150495000Y-109855000D02*
G75*
G03X151765000Y-109855000I635000J635000D01*
G01*
X151765000Y-108585000D02*
G75*
G03X150495000Y-108585000I-635000J-635000D01*
G01*
X155575000Y-64770000D02*
G75*
G03X156845000Y-64770000I635000J635000D01*
G01*
X156845000Y-63500000D02*
G75*
G03X155575000Y-63500000I-635000J-635000D01*
G01*
X155575000Y-62230000D02*
G75*
G03X156845000Y-62230000I635000J635000D01*
G01*
X156845000Y-60960000D02*
G75*
G03X155575000Y-60960000I-635000J-635000D01*
G01*
X155575000Y-77470000D02*
G75*
G03X156845000Y-77470000I635000J635000D01*
G01*
X156845000Y-76200000D02*
G75*
G03X155575000Y-76200000I-635000J-635000D01*
G01*
X112395000Y-85090000D02*
G75*
G03X113665000Y-85090000I635000J635000D01*
G01*
X113665000Y-83820000D02*
G75*
G03X112395000Y-83820000I-635000J-635000D01*
G01*
X97155000Y-73660000D02*
G75*
G03X98425000Y-73660000I635000J635000D01*
G01*
X98425000Y-72390000D02*
G75*
G03X97155000Y-72390000I-635000J-635000D01*
G01*
X114935000Y-85090000D02*
G75*
G03X116205000Y-85090000I635000J635000D01*
G01*
X116205000Y-83820000D02*
G75*
G03X114935000Y-83820000I-635000J-635000D01*
G01*
X103505000Y-77470000D02*
G75*
G03X104775000Y-77470000I635000J635000D01*
G01*
X104775000Y-76200000D02*
G75*
G03X103505000Y-76200000I-635000J-635000D01*
G01*
X108585000Y-82550000D02*
G75*
G03X109855000Y-82550000I635000J635000D01*
G01*
X109855000Y-81280000D02*
G75*
G03X108585000Y-81280000I-635000J-635000D01*
G01*
X117475000Y-85090000D02*
G75*
G03X118745000Y-85090000I635000J635000D01*
G01*
X118745000Y-83820000D02*
G75*
G03X117475000Y-83820000I-635000J-635000D01*
G01*
X117475000Y-82550000D02*
G75*
G03X118745000Y-82550000I635000J635000D01*
G01*
X118745000Y-81280000D02*
G75*
G03X117475000Y-81280000I-635000J-635000D01*
G01*
X99695000Y-73660000D02*
G75*
G03X100965000Y-73660000I635000J635000D01*
G01*
X100965000Y-72390000D02*
G75*
G03X99695000Y-72390000I-635000J-635000D01*
G01*
X114935000Y-82550000D02*
G75*
G03X116205000Y-82550000I635000J635000D01*
G01*
X116205000Y-81280000D02*
G75*
G03X114935000Y-81280000I-635000J-635000D01*
G01*
X106045000Y-87630000D02*
G75*
G03X107315000Y-87630000I635000J635000D01*
G01*
X107315000Y-86360000D02*
G75*
G03X106045000Y-86360000I-635000J-635000D01*
G01*
X99695000Y-85090000D02*
G75*
G03X100965000Y-85090000I635000J635000D01*
G01*
X100965000Y-83820000D02*
G75*
G03X99695000Y-83820000I-635000J-635000D01*
G01*
X99695000Y-87630000D02*
G75*
G03X100965000Y-87630000I635000J635000D01*
G01*
X100965000Y-86360000D02*
G75*
G03X99695000Y-86360000I-635000J-635000D01*
G01*
X177165000Y-75565000D02*
G75*
G03X178435000Y-75565000I635000J635000D01*
G01*
X178435000Y-74295000D02*
G75*
G03X177165000Y-74295000I-635000J-635000D01*
G01*
X177165000Y-95885000D02*
G75*
G03X178435000Y-95885000I635000J635000D01*
G01*
X178435000Y-94615000D02*
G75*
G03X177165000Y-94615000I-635000J-635000D01*
G01*
X80010000Y-130810000D02*
G75*
G03X81280000Y-130810000I635000J635000D01*
G01*
X81280000Y-129540000D02*
G75*
G03X80010000Y-129540000I-635000J-635000D01*
G01*
X74930000Y-130810000D02*
G75*
G03X76200000Y-130810000I635000J635000D01*
G01*
X76200000Y-129540000D02*
G75*
G03X74930000Y-129540000I-635000J-635000D01*
G01*
X127000000Y-130810000D02*
G75*
G03X128270000Y-130810000I635000J635000D01*
G01*
X128270000Y-129540000D02*
G75*
G03X127000000Y-129540000I-635000J-635000D01*
G01*
X124460000Y-130810000D02*
G75*
G03X125730000Y-130810000I635000J635000D01*
G01*
X125730000Y-129540000D02*
G75*
G03X124460000Y-129540000I-635000J-635000D01*
G01*
X121920000Y-130810000D02*
G75*
G03X123190000Y-130810000I635000J635000D01*
G01*
X123190000Y-129540000D02*
G75*
G03X121920000Y-129540000I-635000J-635000D01*
G01*
X129540000Y-130810000D02*
G75*
G03X130810000Y-130810000I635000J635000D01*
G01*
X130810000Y-129540000D02*
G75*
G03X129540000Y-129540000I-635000J-635000D01*
G01*
X77470000Y-130810000D02*
G75*
G03X78740000Y-130810000I635000J635000D01*
G01*
X78740000Y-129540000D02*
G75*
G03X77470000Y-129540000I-635000J-635000D01*
G01*
X72390000Y-130810000D02*
G75*
G03X73660000Y-130810000I635000J635000D01*
G01*
X73660000Y-129540000D02*
G75*
G03X72390000Y-129540000I-635000J-635000D01*
G01*
X167005000Y-102235000D02*
G75*
G03X168275000Y-102235000I635000J635000D01*
G01*
X168275000Y-100965000D02*
G75*
G03X167005000Y-100965000I-635000J-635000D01*
G01*
X158750000Y-93980000D02*
G75*
G03X160020000Y-93980000I635000J635000D01*
G01*
X160020000Y-92710000D02*
G75*
G03X158750000Y-92710000I-635000J-635000D01*
G01*
X156210000Y-93980000D02*
G75*
G03X157480000Y-93980000I635000J635000D01*
G01*
X157480000Y-92710000D02*
G75*
G03X156210000Y-92710000I-635000J-635000D01*
G01*
X167005000Y-104775000D02*
G75*
G03X168275000Y-104775000I635000J635000D01*
G01*
X168275000Y-103505000D02*
G75*
G03X167005000Y-103505000I-635000J-635000D01*
G01*
X167005000Y-107315000D02*
G75*
G03X168275000Y-107315000I635000J635000D01*
G01*
X168275000Y-106045000D02*
G75*
G03X167005000Y-106045000I-635000J-635000D01*
G01*
X150495000Y-107315000D02*
G75*
G03X151765000Y-107315000I635000J635000D01*
G01*
X151765000Y-106045000D02*
G75*
G03X150495000Y-106045000I-635000J-635000D01*
G01*
X155575000Y-69850000D02*
G75*
G03X156845000Y-69850000I635000J635000D01*
G01*
X156845000Y-68580000D02*
G75*
G03X155575000Y-68580000I-635000J-635000D01*
G01*
X155575000Y-74930000D02*
G75*
G03X156845000Y-74930000I635000J635000D01*
G01*
X156845000Y-73660000D02*
G75*
G03X155575000Y-73660000I-635000J-635000D01*
G01*
X155575000Y-67310000D02*
G75*
G03X156845000Y-67310000I635000J635000D01*
G01*
X156845000Y-66040000D02*
G75*
G03X155575000Y-66040000I-635000J-635000D01*
G01*
X155575000Y-72390000D02*
G75*
G03X156845000Y-72390000I635000J635000D01*
G01*
X156845000Y-71120000D02*
G75*
G03X155575000Y-71120000I-635000J-635000D01*
G01*
X165735000Y-92075000D02*
G75*
G03X167005000Y-92075000I635000J635000D01*
G01*
X167005000Y-90805000D02*
G75*
G03X165735000Y-90805000I-635000J-635000D01*
G01*
X115575000Y-88670000D02*
X119375000Y-88670000D01*
X119375000Y-88670000D02*
X119375000Y-91670000D01*
X119375000Y-91670000D02*
X115575000Y-91670000D01*
X115575000Y-91670000D02*
X115575000Y-88670000D01*
D12*
X74645000Y-75340000D02*
X74645000Y-94840000D01*
X81645000Y-75340000D02*
X81645000Y-94840000D01*
X74645000Y-75340000D02*
X81645000Y-75340000D01*
X74645000Y-94840000D02*
X81645000Y-94840000D01*
D10*
X188573210Y-105664000D02*
G75*
G03X188573210Y-105664000I-359210J0D01*
G01*
D12*
X185750000Y-104720000D02*
X185750000Y-113720000D01*
X195250000Y-104720000D02*
X195250000Y-113720000D01*
X185750000Y-104720000D02*
X195250000Y-104720000D01*
X185750000Y-113720000D02*
X195250000Y-113720000D01*
D10*
X188573210Y-66294000D02*
G75*
G03X188573210Y-66294000I-359210J0D01*
G01*
D12*
X185750000Y-65350000D02*
X185750000Y-74350000D01*
X195250000Y-65350000D02*
X195250000Y-74350000D01*
X185750000Y-65350000D02*
X195250000Y-65350000D01*
X185750000Y-74350000D02*
X195250000Y-74350000D01*
D11*
X92968553Y-78760000D02*
G75*
G03X92968553Y-78760000I-353553J0D01*
G01*
D12*
X91965000Y-77360000D02*
X91965000Y-82660000D01*
X97265000Y-77360000D02*
X97265000Y-82660000D01*
X91965000Y-77360000D02*
X97265000Y-77360000D01*
X91965000Y-82660000D02*
X97265000Y-82660000D01*
X143770000Y-42525000D02*
G75*
G03X143770000Y-42525000I-2800000J0D01*
G01*
X158375000Y-128290000D02*
G75*
G03X158375000Y-128290000I-2800000J0D01*
G01*
X199650000Y-125730000D02*
G75*
G03X199650000Y-125730000I-5300000J0D01*
G01*
X199650000Y-88900000D02*
G75*
G03X199650000Y-88900000I-5300000J0D01*
G01*
X199570000Y-49530000D02*
G75*
G03X199570000Y-49530000I-5300000J0D01*
G01*
X101120000Y-65560000D02*
X101120000Y-71610000D01*
X104620000Y-65560000D02*
X104620000Y-71610000D01*
X101120000Y-65560000D02*
X104620000Y-65560000D01*
X101120000Y-71610000D02*
X104620000Y-71610000D01*
X203595000Y-111005000D02*
X198995000Y-111005000D01*
X203595000Y-108705000D02*
X198995000Y-108705000D01*
X203595000Y-111005000D02*
X203595000Y-108705000D01*
X198995000Y-111005000D02*
X198995000Y-108705000D01*
X198995000Y-105530000D02*
X203595000Y-105530000D01*
X198995000Y-107830000D02*
X203595000Y-107830000D01*
X198995000Y-105530000D02*
X198995000Y-107830000D01*
X203595000Y-105530000D02*
X203595000Y-107830000D01*
X184545000Y-112910000D02*
X179945000Y-112910000D01*
X184545000Y-110610000D02*
X179945000Y-110610000D01*
X184545000Y-112910000D02*
X184545000Y-110610000D01*
X179945000Y-112910000D02*
X179945000Y-110610000D01*
X155180000Y-108070000D02*
X159780000Y-108070000D01*
X155180000Y-110370000D02*
X159780000Y-110370000D01*
X155180000Y-108070000D02*
X155180000Y-110370000D01*
X159780000Y-108070000D02*
X159780000Y-110370000D01*
X153790000Y-60085000D02*
X153790000Y-55485000D01*
X156090000Y-60085000D02*
X156090000Y-55485000D01*
X153790000Y-60085000D02*
X156090000Y-60085000D01*
X153790000Y-55485000D02*
X156090000Y-55485000D01*
X97755000Y-47985000D02*
X93155000Y-47985000D01*
X97755000Y-45685000D02*
X93155000Y-45685000D01*
X97755000Y-47985000D02*
X97755000Y-45685000D01*
X93155000Y-47985000D02*
X93155000Y-45685000D01*
X120255000Y-94735000D02*
X124855000Y-94735000D01*
X120255000Y-97035000D02*
X124855000Y-97035000D01*
X120255000Y-94735000D02*
X120255000Y-97035000D01*
X124855000Y-94735000D02*
X124855000Y-97035000D01*
X124220000Y-88145000D02*
X119620000Y-88145000D01*
X124220000Y-85845000D02*
X119620000Y-85845000D01*
X124220000Y-88145000D02*
X124220000Y-85845000D01*
X119620000Y-88145000D02*
X119620000Y-85845000D01*
X120890000Y-89655000D02*
X125490000Y-89655000D01*
X120890000Y-91955000D02*
X125490000Y-91955000D01*
X120890000Y-89655000D02*
X120890000Y-91955000D01*
X125490000Y-89655000D02*
X125490000Y-91955000D01*
X158510000Y-91320000D02*
X153910000Y-91320000D01*
X158510000Y-89020000D02*
X153910000Y-89020000D01*
X158510000Y-91320000D02*
X158510000Y-89020000D01*
X153910000Y-91320000D02*
X153910000Y-89020000D01*
X143630000Y-103900000D02*
X143630000Y-99300000D01*
X145930000Y-103900000D02*
X145930000Y-99300000D01*
X143630000Y-103900000D02*
X145930000Y-103900000D01*
X143630000Y-99300000D02*
X145930000Y-99300000D01*
X131050000Y-73145000D02*
X135650000Y-73145000D01*
X131050000Y-75445000D02*
X135650000Y-75445000D01*
X131050000Y-73145000D02*
X131050000Y-75445000D01*
X135650000Y-73145000D02*
X135650000Y-75445000D01*
X153550000Y-99300000D02*
X153550000Y-103900000D01*
X151250000Y-99300000D02*
X151250000Y-103900000D01*
X153550000Y-99300000D02*
X151250000Y-99300000D01*
X153550000Y-103900000D02*
X151250000Y-103900000D01*
X134740000Y-100725000D02*
X134740000Y-96125000D01*
X137040000Y-100725000D02*
X137040000Y-96125000D01*
X134740000Y-100725000D02*
X137040000Y-100725000D01*
X134740000Y-96125000D02*
X137040000Y-96125000D01*
X124065000Y-79495000D02*
X128665000Y-79495000D01*
X124065000Y-81795000D02*
X128665000Y-81795000D01*
X124065000Y-79495000D02*
X124065000Y-81795000D01*
X128665000Y-79495000D02*
X128665000Y-81795000D01*
X148710000Y-103900000D02*
X148710000Y-99300000D01*
X151010000Y-103900000D02*
X151010000Y-99300000D01*
X148710000Y-103900000D02*
X151010000Y-103900000D01*
X148710000Y-99300000D02*
X151010000Y-99300000D01*
X124065000Y-75685000D02*
X128665000Y-75685000D01*
X124065000Y-77985000D02*
X128665000Y-77985000D01*
X124065000Y-75685000D02*
X124065000Y-77985000D01*
X128665000Y-75685000D02*
X128665000Y-77985000D01*
X141090000Y-103900000D02*
X141090000Y-99300000D01*
X143390000Y-103900000D02*
X143390000Y-99300000D01*
X141090000Y-103900000D02*
X143390000Y-103900000D01*
X141090000Y-99300000D02*
X143390000Y-99300000D01*
X160415000Y-86240000D02*
X155815000Y-86240000D01*
X160415000Y-83940000D02*
X155815000Y-83940000D01*
X160415000Y-86240000D02*
X160415000Y-83940000D01*
X155815000Y-86240000D02*
X155815000Y-83940000D01*
X121525000Y-82670000D02*
X126125000Y-82670000D01*
X121525000Y-84970000D02*
X126125000Y-84970000D01*
X121525000Y-82670000D02*
X121525000Y-84970000D01*
X126125000Y-82670000D02*
X126125000Y-84970000D01*
X120255000Y-92195000D02*
X124855000Y-92195000D01*
X120255000Y-94495000D02*
X124855000Y-94495000D01*
X120255000Y-92195000D02*
X120255000Y-94495000D01*
X124855000Y-92195000D02*
X124855000Y-94495000D01*
X139580000Y-96125000D02*
X139580000Y-100725000D01*
X137280000Y-96125000D02*
X137280000Y-100725000D01*
X139580000Y-96125000D02*
X137280000Y-96125000D01*
X139580000Y-100725000D02*
X137280000Y-100725000D01*
X203595000Y-71635000D02*
X198995000Y-71635000D01*
X203595000Y-69335000D02*
X198995000Y-69335000D01*
X203595000Y-71635000D02*
X203595000Y-69335000D01*
X198995000Y-71635000D02*
X198995000Y-69335000D01*
X198995000Y-66160000D02*
X203595000Y-66160000D01*
X198995000Y-68460000D02*
X203595000Y-68460000D01*
X198995000Y-66160000D02*
X198995000Y-68460000D01*
X203595000Y-66160000D02*
X203595000Y-68460000D01*
X186930000Y-118230000D02*
X191530000Y-118230000D01*
X186930000Y-120530000D02*
X191530000Y-120530000D01*
X186930000Y-118230000D02*
X186930000Y-120530000D01*
X191530000Y-118230000D02*
X191530000Y-120530000D01*
X90685000Y-90410000D02*
X90685000Y-95010000D01*
X88385000Y-90410000D02*
X88385000Y-95010000D01*
X90685000Y-90410000D02*
X88385000Y-90410000D01*
X90685000Y-95010000D02*
X88385000Y-95010000D01*
X92830000Y-114060000D02*
X92830000Y-109460000D01*
X95130000Y-114060000D02*
X95130000Y-109460000D01*
X92830000Y-114060000D02*
X95130000Y-114060000D01*
X92830000Y-109460000D02*
X95130000Y-109460000D01*
X125850000Y-48655000D02*
X125850000Y-44055000D01*
X128150000Y-48655000D02*
X128150000Y-44055000D01*
X125850000Y-48655000D02*
X128150000Y-48655000D01*
X125850000Y-44055000D02*
X128150000Y-44055000D01*
X145930000Y-118985000D02*
X145930000Y-123585000D01*
X143630000Y-118985000D02*
X143630000Y-123585000D01*
X145930000Y-118985000D02*
X143630000Y-118985000D01*
X145930000Y-123585000D02*
X143630000Y-123585000D01*
X181850000Y-52825000D02*
X186450000Y-52825000D01*
X181850000Y-55125000D02*
X186450000Y-55125000D01*
X181850000Y-52825000D02*
X181850000Y-55125000D01*
X186450000Y-52825000D02*
X186450000Y-55125000D01*
X193915000Y-75050000D02*
X198515000Y-75050000D01*
X193915000Y-77350000D02*
X198515000Y-77350000D01*
X193915000Y-75050000D02*
X193915000Y-77350000D01*
X198515000Y-75050000D02*
X198515000Y-77350000D01*
X186930000Y-97910000D02*
X191530000Y-97910000D01*
X186930000Y-100210000D02*
X191530000Y-100210000D01*
X186930000Y-97910000D02*
X186930000Y-100210000D01*
X191530000Y-97910000D02*
X191530000Y-100210000D01*
X184545000Y-72905000D02*
X179945000Y-72905000D01*
X184545000Y-70605000D02*
X179945000Y-70605000D01*
X184545000Y-72905000D02*
X184545000Y-70605000D01*
X179945000Y-72905000D02*
X179945000Y-70605000D01*
X186930000Y-58540000D02*
X191530000Y-58540000D01*
X186930000Y-60840000D02*
X191530000Y-60840000D01*
X186930000Y-58540000D02*
X186930000Y-60840000D01*
X191530000Y-58540000D02*
X191530000Y-60840000D01*
X198995000Y-111245000D02*
X203595000Y-111245000D01*
X198995000Y-113545000D02*
X203595000Y-113545000D01*
X198995000Y-111245000D02*
X198995000Y-113545000D01*
X203595000Y-111245000D02*
X203595000Y-113545000D01*
X198995000Y-71875000D02*
X203595000Y-71875000D01*
X198995000Y-74175000D02*
X203595000Y-74175000D01*
X198995000Y-71875000D02*
X198995000Y-74175000D01*
X203595000Y-71875000D02*
X203595000Y-74175000D01*
X90770000Y-47985000D02*
X86170000Y-47985000D01*
X90770000Y-45685000D02*
X86170000Y-45685000D01*
X90770000Y-47985000D02*
X90770000Y-45685000D01*
X86170000Y-47985000D02*
X86170000Y-45685000D01*
X96640000Y-55005000D02*
X96640000Y-50405000D01*
X98940000Y-55005000D02*
X98940000Y-50405000D01*
X96640000Y-55005000D02*
X98940000Y-55005000D01*
X96640000Y-50405000D02*
X98940000Y-50405000D01*
X78980000Y-50920000D02*
X83580000Y-50920000D01*
X78980000Y-53220000D02*
X83580000Y-53220000D01*
X78980000Y-50920000D02*
X78980000Y-53220000D01*
X83580000Y-50920000D02*
X83580000Y-53220000D01*
X98185000Y-59570000D02*
X93585000Y-59570000D01*
X98185000Y-57270000D02*
X93585000Y-57270000D01*
X98185000Y-59570000D02*
X98185000Y-57270000D01*
X93585000Y-59570000D02*
X93585000Y-57270000D01*
X74175000Y-73900000D02*
X74175000Y-78500000D01*
X71875000Y-73900000D02*
X71875000Y-78500000D01*
X74175000Y-73900000D02*
X71875000Y-73900000D01*
X74175000Y-78500000D02*
X71875000Y-78500000D01*
X68065000Y-55640000D02*
X68065000Y-51040000D01*
X70365000Y-55640000D02*
X70365000Y-51040000D01*
X68065000Y-55640000D02*
X70365000Y-55640000D01*
X68065000Y-51040000D02*
X70365000Y-51040000D01*
X84060000Y-66795000D02*
X88660000Y-66795000D01*
X84060000Y-69095000D02*
X88660000Y-69095000D01*
X84060000Y-66795000D02*
X84060000Y-69095000D01*
X88660000Y-66795000D02*
X88660000Y-69095000D01*
X84060000Y-64255000D02*
X88660000Y-64255000D01*
X84060000Y-66555000D02*
X88660000Y-66555000D01*
X84060000Y-64255000D02*
X84060000Y-66555000D01*
X88660000Y-64255000D02*
X88660000Y-66555000D01*
X84060000Y-69335000D02*
X88660000Y-69335000D01*
X84060000Y-71635000D02*
X88660000Y-71635000D01*
X84060000Y-69335000D02*
X84060000Y-71635000D01*
X88660000Y-69335000D02*
X88660000Y-71635000D01*
X91045000Y-66795000D02*
X95645000Y-66795000D01*
X91045000Y-69095000D02*
X95645000Y-69095000D01*
X91045000Y-66795000D02*
X91045000Y-69095000D01*
X95645000Y-66795000D02*
X95645000Y-69095000D01*
X127515000Y-95490000D02*
X127515000Y-100090000D01*
X125215000Y-95490000D02*
X125215000Y-100090000D01*
X127515000Y-95490000D02*
X125215000Y-95490000D01*
X127515000Y-100090000D02*
X125215000Y-100090000D01*
X91045000Y-69335000D02*
X95645000Y-69335000D01*
X91045000Y-71635000D02*
X95645000Y-71635000D01*
X91045000Y-69335000D02*
X91045000Y-71635000D01*
X95645000Y-69335000D02*
X95645000Y-71635000D01*
X104020000Y-90410000D02*
X104020000Y-95010000D01*
X101720000Y-90410000D02*
X101720000Y-95010000D01*
X104020000Y-90410000D02*
X101720000Y-90410000D01*
X104020000Y-95010000D02*
X101720000Y-95010000D01*
X98940000Y-90410000D02*
X98940000Y-95010000D01*
X96640000Y-90410000D02*
X96640000Y-95010000D01*
X98940000Y-90410000D02*
X96640000Y-90410000D01*
X98940000Y-95010000D02*
X96640000Y-95010000D01*
X102475000Y-80130000D02*
X107075000Y-80130000D01*
X102475000Y-82430000D02*
X107075000Y-82430000D01*
X102475000Y-80130000D02*
X102475000Y-82430000D01*
X107075000Y-80130000D02*
X107075000Y-82430000D01*
X105650000Y-77590000D02*
X110250000Y-77590000D01*
X105650000Y-79890000D02*
X110250000Y-79890000D01*
X105650000Y-77590000D02*
X105650000Y-79890000D01*
X110250000Y-77590000D02*
X110250000Y-79890000D01*
X100725000Y-71635000D02*
X96125000Y-71635000D01*
X100725000Y-69335000D02*
X96125000Y-69335000D01*
X100725000Y-71635000D02*
X100725000Y-69335000D01*
X96125000Y-71635000D02*
X96125000Y-69335000D01*
X121165000Y-116445000D02*
X121165000Y-121045000D01*
X118865000Y-116445000D02*
X118865000Y-121045000D01*
X121165000Y-116445000D02*
X118865000Y-116445000D01*
X121165000Y-121045000D02*
X118865000Y-121045000D01*
X123705000Y-116445000D02*
X123705000Y-121045000D01*
X121405000Y-116445000D02*
X121405000Y-121045000D01*
X123705000Y-116445000D02*
X121405000Y-116445000D01*
X123705000Y-121045000D02*
X121405000Y-121045000D01*
X74175000Y-114540000D02*
X74175000Y-119140000D01*
X71875000Y-114540000D02*
X71875000Y-119140000D01*
X74175000Y-114540000D02*
X71875000Y-114540000D01*
X74175000Y-119140000D02*
X71875000Y-119140000D01*
X74175000Y-101840000D02*
X74175000Y-106440000D01*
X71875000Y-101840000D02*
X71875000Y-106440000D01*
X74175000Y-101840000D02*
X71875000Y-101840000D01*
X74175000Y-106440000D02*
X71875000Y-106440000D01*
X186930000Y-78860000D02*
X191530000Y-78860000D01*
X186930000Y-81160000D02*
X191530000Y-81160000D01*
X186930000Y-78860000D02*
X186930000Y-81160000D01*
X191530000Y-78860000D02*
X191530000Y-81160000D01*
X193915000Y-114420000D02*
X198515000Y-114420000D01*
X193915000Y-116720000D02*
X198515000Y-116720000D01*
X193915000Y-114420000D02*
X193915000Y-116720000D01*
X198515000Y-114420000D02*
X198515000Y-116720000D01*
X193915000Y-101720000D02*
X198515000Y-101720000D01*
X193915000Y-104020000D02*
X198515000Y-104020000D01*
X193915000Y-101720000D02*
X193915000Y-104020000D01*
X198515000Y-101720000D02*
X198515000Y-104020000D01*
X193915000Y-62350000D02*
X198515000Y-62350000D01*
X193915000Y-64650000D02*
X198515000Y-64650000D01*
X193915000Y-62350000D02*
X193915000Y-64650000D01*
X198515000Y-62350000D02*
X198515000Y-64650000D01*
X119500000Y-63260000D02*
X119500000Y-58660000D01*
X121800000Y-63260000D02*
X121800000Y-58660000D01*
X119500000Y-63260000D02*
X121800000Y-63260000D01*
X119500000Y-58660000D02*
X121800000Y-58660000D01*
X111005000Y-105650000D02*
X111005000Y-110250000D01*
X108705000Y-105650000D02*
X108705000Y-110250000D01*
X111005000Y-105650000D02*
X108705000Y-105650000D01*
X111005000Y-110250000D02*
X108705000Y-110250000D01*
X147440000Y-76595000D02*
X147440000Y-71995000D01*
X149740000Y-76595000D02*
X149740000Y-71995000D01*
X147440000Y-76595000D02*
X149740000Y-76595000D01*
X147440000Y-71995000D02*
X149740000Y-71995000D01*
X113325000Y-50730000D02*
X108925000Y-50730000D01*
X113325000Y-48330000D02*
X108925000Y-48330000D01*
X113325000Y-50730000D02*
X113325000Y-48330000D01*
X108925000Y-50730000D02*
X108925000Y-48330000D01*
X105705000Y-50730000D02*
X101305000Y-50730000D01*
X105705000Y-48330000D02*
X101305000Y-48330000D01*
X105705000Y-50730000D02*
X105705000Y-48330000D01*
X101305000Y-50730000D02*
X101305000Y-48330000D01*
X110420000Y-51140000D02*
X110420000Y-55540000D01*
X108020000Y-51140000D02*
X108020000Y-55540000D01*
X110420000Y-51140000D02*
X108020000Y-51140000D01*
X110420000Y-55540000D02*
X108020000Y-55540000D01*
X102800000Y-51140000D02*
X102800000Y-55540000D01*
X100400000Y-51140000D02*
X100400000Y-55540000D01*
X102800000Y-51140000D02*
X100400000Y-51140000D01*
X102800000Y-55540000D02*
X100400000Y-55540000D01*
X96225000Y-64205000D02*
X100625000Y-64205000D01*
X96225000Y-66605000D02*
X100625000Y-66605000D01*
X96225000Y-64205000D02*
X96225000Y-66605000D01*
X100625000Y-64205000D02*
X100625000Y-66605000D01*
X79305000Y-57490000D02*
X79305000Y-61890000D01*
X76905000Y-57490000D02*
X76905000Y-61890000D01*
X79305000Y-57490000D02*
X76905000Y-57490000D01*
X79305000Y-61890000D02*
X76905000Y-61890000D01*
X100625000Y-69145000D02*
X96225000Y-69145000D01*
X100625000Y-66745000D02*
X96225000Y-66745000D01*
X100625000Y-69145000D02*
X100625000Y-66745000D01*
X96225000Y-69145000D02*
X96225000Y-66745000D01*
X97225000Y-128565000D02*
X97225000Y-124165000D01*
X99625000Y-128565000D02*
X99625000Y-124165000D01*
X97225000Y-128565000D02*
X99625000Y-128565000D01*
X97225000Y-124165000D02*
X99625000Y-124165000D01*
X99765000Y-128565000D02*
X99765000Y-124165000D01*
X102165000Y-128565000D02*
X102165000Y-124165000D01*
X99765000Y-128565000D02*
X102165000Y-128565000D01*
X99765000Y-124165000D02*
X102165000Y-124165000D01*
X102305000Y-128565000D02*
X102305000Y-124165000D01*
X104705000Y-128565000D02*
X104705000Y-124165000D01*
X102305000Y-128565000D02*
X104705000Y-128565000D01*
X102305000Y-124165000D02*
X104705000Y-124165000D01*
X104845000Y-128565000D02*
X104845000Y-124165000D01*
X107245000Y-128565000D02*
X107245000Y-124165000D01*
X104845000Y-128565000D02*
X107245000Y-128565000D01*
X104845000Y-124165000D02*
X107245000Y-124165000D01*
X86290000Y-104480000D02*
X86290000Y-108880000D01*
X83890000Y-104480000D02*
X83890000Y-108880000D01*
X86290000Y-104480000D02*
X83890000Y-104480000D01*
X86290000Y-108880000D02*
X83890000Y-108880000D01*
X83750000Y-104480000D02*
X83750000Y-108880000D01*
X81350000Y-104480000D02*
X81350000Y-108880000D01*
X83750000Y-104480000D02*
X81350000Y-104480000D01*
X83750000Y-108880000D02*
X81350000Y-108880000D01*
X83255000Y-128565000D02*
X83255000Y-124165000D01*
X85655000Y-128565000D02*
X85655000Y-124165000D01*
X83255000Y-128565000D02*
X85655000Y-128565000D01*
X83255000Y-124165000D02*
X85655000Y-124165000D01*
X85795000Y-128565000D02*
X85795000Y-124165000D01*
X88195000Y-128565000D02*
X88195000Y-124165000D01*
X85795000Y-128565000D02*
X88195000Y-128565000D01*
X85795000Y-124165000D02*
X88195000Y-124165000D01*
X88335000Y-128565000D02*
X88335000Y-124165000D01*
X90735000Y-128565000D02*
X90735000Y-124165000D01*
X88335000Y-128565000D02*
X90735000Y-128565000D01*
X88335000Y-124165000D02*
X90735000Y-124165000D01*
X90875000Y-128565000D02*
X90875000Y-124165000D01*
X93275000Y-128565000D02*
X93275000Y-124165000D01*
X90875000Y-128565000D02*
X93275000Y-128565000D01*
X90875000Y-124165000D02*
X93275000Y-124165000D01*
X104070000Y-104480000D02*
X104070000Y-108880000D01*
X101670000Y-104480000D02*
X101670000Y-108880000D01*
X104070000Y-104480000D02*
X101670000Y-104480000D01*
X104070000Y-108880000D02*
X101670000Y-108880000D01*
X96450000Y-104480000D02*
X96450000Y-108880000D01*
X94050000Y-104480000D02*
X94050000Y-108880000D01*
X96450000Y-104480000D02*
X94050000Y-104480000D01*
X96450000Y-108880000D02*
X94050000Y-108880000D01*
X98990000Y-104480000D02*
X98990000Y-108880000D01*
X96590000Y-104480000D02*
X96590000Y-108880000D01*
X98990000Y-104480000D02*
X96590000Y-104480000D01*
X98990000Y-108880000D02*
X96590000Y-108880000D01*
X101530000Y-104480000D02*
X101530000Y-108880000D01*
X99130000Y-104480000D02*
X99130000Y-108880000D01*
X101530000Y-104480000D02*
X99130000Y-104480000D01*
X101530000Y-108880000D02*
X99130000Y-108880000D01*
X81845000Y-57490000D02*
X81845000Y-61890000D01*
X79445000Y-57490000D02*
X79445000Y-61890000D01*
X81845000Y-57490000D02*
X79445000Y-57490000D01*
X81845000Y-61890000D02*
X79445000Y-61890000D01*
X123485000Y-78035000D02*
X119085000Y-78035000D01*
X123485000Y-75635000D02*
X119085000Y-75635000D01*
X123485000Y-78035000D02*
X123485000Y-75635000D01*
X119085000Y-78035000D02*
X119085000Y-75635000D01*
X105750000Y-75000000D02*
X110150000Y-75000000D01*
X105750000Y-77400000D02*
X110150000Y-77400000D01*
X105750000Y-75000000D02*
X105750000Y-77400000D01*
X110150000Y-75000000D02*
X110150000Y-77400000D01*
X132375000Y-103435000D02*
X127975000Y-103435000D01*
X132375000Y-101035000D02*
X127975000Y-101035000D01*
X132375000Y-103435000D02*
X132375000Y-101035000D01*
X127975000Y-103435000D02*
X127975000Y-101035000D01*
X91145000Y-64205000D02*
X95545000Y-64205000D01*
X91145000Y-66605000D02*
X95545000Y-66605000D01*
X91145000Y-64205000D02*
X91145000Y-66605000D01*
X95545000Y-64205000D02*
X95545000Y-66605000D01*
X145120000Y-50235000D02*
X149520000Y-50235000D01*
X145120000Y-52635000D02*
X149520000Y-52635000D01*
X145120000Y-50235000D02*
X145120000Y-52635000D01*
X149520000Y-50235000D02*
X149520000Y-52635000D01*
X123485000Y-106610000D02*
X119085000Y-106610000D01*
X123485000Y-104210000D02*
X119085000Y-104210000D01*
X123485000Y-106610000D02*
X123485000Y-104210000D01*
X119085000Y-106610000D02*
X119085000Y-104210000D01*
X158045000Y-119085000D02*
X158045000Y-123485000D01*
X155645000Y-119085000D02*
X155645000Y-123485000D01*
X158045000Y-119085000D02*
X155645000Y-119085000D01*
X158045000Y-123485000D02*
X155645000Y-123485000D01*
X153105000Y-123485000D02*
X153105000Y-119085000D01*
X155505000Y-123485000D02*
X155505000Y-119085000D01*
X153105000Y-123485000D02*
X155505000Y-123485000D01*
X153105000Y-119085000D02*
X155505000Y-119085000D01*
X76765000Y-42250000D02*
X76765000Y-46650000D01*
X74365000Y-42250000D02*
X74365000Y-46650000D01*
X76765000Y-42250000D02*
X74365000Y-42250000D01*
X76765000Y-46650000D02*
X74365000Y-46650000D01*
X99130000Y-94910000D02*
X99130000Y-90510000D01*
X101530000Y-94910000D02*
X101530000Y-90510000D01*
X99130000Y-94910000D02*
X101530000Y-94910000D01*
X99130000Y-90510000D02*
X101530000Y-90510000D01*
X106610000Y-90510000D02*
X106610000Y-94910000D01*
X104210000Y-90510000D02*
X104210000Y-94910000D01*
X106610000Y-90510000D02*
X104210000Y-90510000D01*
X106610000Y-94910000D02*
X104210000Y-94910000D01*
X132645000Y-66380000D02*
X132645000Y-70780000D01*
X130245000Y-66380000D02*
X130245000Y-70780000D01*
X132645000Y-66380000D02*
X130245000Y-66380000D01*
X132645000Y-70780000D02*
X130245000Y-70780000D01*
X119310000Y-58760000D02*
X119310000Y-63160000D01*
X116910000Y-58760000D02*
X116910000Y-63160000D01*
X119310000Y-58760000D02*
X116910000Y-58760000D01*
X119310000Y-63160000D02*
X116910000Y-63160000D01*
X116770000Y-58760000D02*
X116770000Y-63160000D01*
X114370000Y-58760000D02*
X114370000Y-63160000D01*
X116770000Y-58760000D02*
X114370000Y-58760000D01*
X116770000Y-63160000D02*
X114370000Y-63160000D01*
X114230000Y-58760000D02*
X114230000Y-63160000D01*
X111830000Y-58760000D02*
X111830000Y-63160000D01*
X114230000Y-58760000D02*
X111830000Y-58760000D01*
X114230000Y-63160000D02*
X111830000Y-63160000D01*
X114595000Y-91370000D02*
X110195000Y-91370000D01*
X114595000Y-88970000D02*
X110195000Y-88970000D01*
X114595000Y-91370000D02*
X114595000Y-88970000D01*
X110195000Y-91370000D02*
X110195000Y-88970000D01*
X160360000Y-108020000D02*
X164760000Y-108020000D01*
X160360000Y-110420000D02*
X164760000Y-110420000D01*
X160360000Y-108020000D02*
X160360000Y-110420000D01*
X164760000Y-108020000D02*
X164760000Y-110420000D01*
X111690000Y-58760000D02*
X111690000Y-63160000D01*
X109290000Y-58760000D02*
X109290000Y-63160000D01*
X111690000Y-58760000D02*
X109290000Y-58760000D01*
X111690000Y-63160000D02*
X109290000Y-63160000D01*
X149930000Y-76495000D02*
X149930000Y-72095000D01*
X152330000Y-76495000D02*
X152330000Y-72095000D01*
X149930000Y-76495000D02*
X152330000Y-76495000D01*
X149930000Y-72095000D02*
X152330000Y-72095000D01*
X204265000Y-48740000D02*
X200865000Y-48740000D01*
X200865000Y-48740000D02*
X200865000Y-45240000D01*
X200865000Y-45240000D02*
X204265000Y-45240000D01*
X204265000Y-45240000D02*
X204265000Y-48740000D01*
X114145000Y-51640000D02*
X114145000Y-55040000D01*
X114145000Y-55040000D02*
X110645000Y-55040000D01*
X110645000Y-55040000D02*
X110645000Y-51640000D01*
X110645000Y-51640000D02*
X114145000Y-51640000D01*
X106525000Y-51640000D02*
X106525000Y-55040000D01*
X106525000Y-55040000D02*
X103025000Y-55040000D01*
X103025000Y-55040000D02*
X103025000Y-51640000D01*
X103025000Y-51640000D02*
X106525000Y-51640000D01*
X170660000Y-109425000D02*
X170660000Y-112825000D01*
X170660000Y-112825000D02*
X167160000Y-112825000D01*
X167160000Y-112825000D02*
X167160000Y-109425000D01*
X167160000Y-109425000D02*
X170660000Y-109425000D01*
X207575000Y-44790000D02*
X207575000Y-49190000D01*
X205175000Y-44790000D02*
X205175000Y-49190000D01*
X207575000Y-44790000D02*
X205175000Y-44790000D01*
X207575000Y-49190000D02*
X205175000Y-49190000D01*
X126200000Y-63610000D02*
X126200000Y-73560000D01*
X126200000Y-73560000D02*
X104900000Y-73560000D01*
X104900000Y-73560000D02*
X104900000Y-63610000D01*
X104900000Y-63610000D02*
X126200000Y-63610000D01*
X137005000Y-55400000D02*
X128405000Y-55400000D01*
X137005000Y-58900000D02*
X128405000Y-58900000D01*
X137005000Y-55400000D02*
X137005000Y-58900000D01*
X128405000Y-55400000D02*
X128405000Y-58900000D01*
X137005000Y-52225000D02*
X128405000Y-52225000D01*
X137005000Y-55725000D02*
X128405000Y-55725000D01*
X137005000Y-52225000D02*
X137005000Y-55725000D01*
X128405000Y-52225000D02*
X128405000Y-55725000D01*
X192480000Y-117805000D02*
X185980000Y-117805000D01*
X192480000Y-114605000D02*
X185980000Y-114605000D01*
X192480000Y-117805000D02*
X192480000Y-114605000D01*
X185980000Y-117805000D02*
X185980000Y-114605000D01*
X192480000Y-103835000D02*
X185980000Y-103835000D01*
X192480000Y-100635000D02*
X185980000Y-100635000D01*
X192480000Y-103835000D02*
X192480000Y-100635000D01*
X185980000Y-103835000D02*
X185980000Y-100635000D01*
X124155000Y-99425000D02*
X120955000Y-99425000D01*
X124155000Y-97425000D02*
X120955000Y-97425000D01*
X124155000Y-99425000D02*
X124155000Y-97425000D01*
X120955000Y-99425000D02*
X120955000Y-97425000D01*
X96250000Y-91110000D02*
X96250000Y-94310000D01*
X94250000Y-91110000D02*
X94250000Y-94310000D01*
X96250000Y-91110000D02*
X94250000Y-91110000D01*
X96250000Y-94310000D02*
X94250000Y-94310000D01*
X192480000Y-78435000D02*
X185980000Y-78435000D01*
X192480000Y-75235000D02*
X185980000Y-75235000D01*
X192480000Y-78435000D02*
X192480000Y-75235000D01*
X185980000Y-78435000D02*
X185980000Y-75235000D01*
X192480000Y-64465000D02*
X185980000Y-64465000D01*
X192480000Y-61265000D02*
X185980000Y-61265000D01*
X192480000Y-64465000D02*
X192480000Y-61265000D01*
X185980000Y-64465000D02*
X185980000Y-61265000D01*
X176050000Y-93190000D02*
X182100000Y-93190000D01*
X176050000Y-89690000D02*
X182100000Y-89690000D01*
X176050000Y-93190000D02*
X176050000Y-89690000D01*
X182100000Y-93190000D02*
X182100000Y-89690000D01*
X182090000Y-85880000D02*
X176040000Y-85880000D01*
X182090000Y-89380000D02*
X176040000Y-89380000D01*
X182090000Y-85880000D02*
X182090000Y-89380000D01*
X176040000Y-85880000D02*
X176040000Y-89380000D01*
X176050000Y-80490000D02*
X182100000Y-80490000D01*
X176050000Y-76990000D02*
X182100000Y-76990000D01*
X176050000Y-80490000D02*
X176050000Y-76990000D01*
X182100000Y-80490000D02*
X182100000Y-76990000D01*
X182090000Y-80800000D02*
X176040000Y-80800000D01*
X182090000Y-84300000D02*
X176040000Y-84300000D01*
X182090000Y-80800000D02*
X182090000Y-84300000D01*
X176040000Y-80800000D02*
X176040000Y-84300000D01*
X91370000Y-104480000D02*
X91370000Y-108880000D01*
X88970000Y-104480000D02*
X88970000Y-108880000D01*
X91370000Y-104480000D02*
X88970000Y-104480000D01*
X91370000Y-108880000D02*
X88970000Y-108880000D01*
X88830000Y-104480000D02*
X88830000Y-108880000D01*
X86430000Y-104480000D02*
X86430000Y-108880000D01*
X88830000Y-104480000D02*
X86430000Y-104480000D01*
X88830000Y-108880000D02*
X86430000Y-108880000D01*
X113325000Y-48190000D02*
X108925000Y-48190000D01*
X113325000Y-45790000D02*
X108925000Y-45790000D01*
X113325000Y-48190000D02*
X113325000Y-45790000D01*
X108925000Y-48190000D02*
X108925000Y-45790000D01*
X105705000Y-48190000D02*
X101305000Y-48190000D01*
X105705000Y-45790000D02*
X101305000Y-45790000D01*
X105705000Y-48190000D02*
X105705000Y-45790000D01*
X101305000Y-48190000D02*
X101305000Y-45790000D01*
X184445000Y-110420000D02*
X180045000Y-110420000D01*
X184445000Y-108020000D02*
X180045000Y-108020000D01*
X184445000Y-110420000D02*
X184445000Y-108020000D01*
X180045000Y-110420000D02*
X180045000Y-108020000D01*
X191430000Y-97720000D02*
X187030000Y-97720000D01*
X191430000Y-95320000D02*
X187030000Y-95320000D01*
X191430000Y-97720000D02*
X191430000Y-95320000D01*
X187030000Y-97720000D02*
X187030000Y-95320000D01*
X180045000Y-73095000D02*
X184445000Y-73095000D01*
X180045000Y-75495000D02*
X184445000Y-75495000D01*
X180045000Y-73095000D02*
X180045000Y-75495000D01*
X184445000Y-73095000D02*
X184445000Y-75495000D01*
X191430000Y-83750000D02*
X187030000Y-83750000D01*
X191430000Y-81350000D02*
X187030000Y-81350000D01*
X191430000Y-83750000D02*
X191430000Y-81350000D01*
X187030000Y-83750000D02*
X187030000Y-81350000D01*
D11*
X95535715Y-51887381D02*
X94964286Y-51887381D01*
X95250000Y-51887381D02*
X95250000Y-50887381D01*
X95154762Y-51030238D01*
X95059524Y-51125476D01*
X94964286Y-51173095D01*
X87447381Y-110839285D02*
X87447381Y-111410714D01*
X87447381Y-111125000D02*
X86447381Y-111125000D01*
X86590238Y-111220238D01*
X86685476Y-111315476D01*
X86733095Y-111410714D01*
X100147381Y-110839285D02*
X100147381Y-111410714D01*
X100147381Y-111125000D02*
X99147381Y-111125000D01*
X99290238Y-111220238D01*
X99385476Y-111315476D01*
X99433095Y-111410714D01*
X150145715Y-65857381D02*
X149574286Y-65857381D01*
X149860000Y-65857381D02*
X149860000Y-64857381D01*
X149764762Y-65000238D01*
X149669524Y-65095476D01*
X149574286Y-65143095D01*
X167259048Y-44521429D02*
X168020953Y-44521429D01*
X167259048Y-65476429D02*
X168020953Y-65476429D01*
X167640001Y-65857381D02*
X167640001Y-65095476D01*
X78390715Y-77922381D02*
X77819286Y-77922381D01*
X78105000Y-77922381D02*
X78105000Y-76922381D01*
X78009762Y-77065238D01*
X77914524Y-77160476D01*
X77819286Y-77208095D01*
X138303333Y-42122619D02*
X138350952Y-42075000D01*
X138446190Y-42027381D01*
X138684286Y-42027381D01*
X138779524Y-42075000D01*
X138827143Y-42122619D01*
X138874762Y-42217857D01*
X138874762Y-42313095D01*
X138827143Y-42455952D01*
X138255714Y-43027381D01*
X138874762Y-43027381D01*
X139255714Y-42122619D02*
X139303333Y-42075000D01*
X139398571Y-42027381D01*
X139636667Y-42027381D01*
X139731905Y-42075000D01*
X139779524Y-42122619D01*
X139827143Y-42217857D01*
X139827143Y-42313095D01*
X139779524Y-42455952D01*
X139208095Y-43027381D01*
X139827143Y-43027381D01*
X140255714Y-42360714D02*
X140255714Y-43360714D01*
X140731905Y-42884524D02*
X140779524Y-42979762D01*
X140874762Y-43027381D01*
X140255714Y-42884524D02*
X140303333Y-42979762D01*
X140398571Y-43027381D01*
X140589048Y-43027381D01*
X140684286Y-42979762D01*
X140731905Y-42884524D01*
X140731905Y-42360714D01*
X141779524Y-42027381D02*
X141303333Y-42027381D01*
X141255714Y-42503571D01*
X141303333Y-42455952D01*
X141398571Y-42408333D01*
X141636667Y-42408333D01*
X141731905Y-42455952D01*
X141779524Y-42503571D01*
X141827143Y-42598810D01*
X141827143Y-42836905D01*
X141779524Y-42932143D01*
X141731905Y-42979762D01*
X141636667Y-43027381D01*
X141398571Y-43027381D01*
X141303333Y-42979762D01*
X141255714Y-42932143D01*
X142446190Y-42027381D02*
X142541429Y-42027381D01*
X142636667Y-42075000D01*
X142684286Y-42122619D01*
X142731905Y-42217857D01*
X142779524Y-42408333D01*
X142779524Y-42646429D01*
X142731905Y-42836905D01*
X142684286Y-42932143D01*
X142636667Y-42979762D01*
X142541429Y-43027381D01*
X142446190Y-43027381D01*
X142350952Y-42979762D01*
X142303333Y-42932143D01*
X142255714Y-42836905D01*
X142208095Y-42646429D01*
X142208095Y-42408333D01*
X142255714Y-42217857D01*
X142303333Y-42122619D01*
X142350952Y-42075000D01*
X142446190Y-42027381D01*
X143065238Y-42027381D02*
X143398571Y-43027381D01*
X143731905Y-42027381D01*
X141041429Y-41655952D02*
X141041429Y-40894047D01*
X141422381Y-41274999D02*
X140660476Y-41274999D01*
X152908333Y-127787619D02*
X152955952Y-127740000D01*
X153051190Y-127692381D01*
X153289286Y-127692381D01*
X153384524Y-127740000D01*
X153432143Y-127787619D01*
X153479762Y-127882857D01*
X153479762Y-127978095D01*
X153432143Y-128120952D01*
X152860714Y-128692381D01*
X153479762Y-128692381D01*
X153860714Y-127787619D02*
X153908333Y-127740000D01*
X154003571Y-127692381D01*
X154241667Y-127692381D01*
X154336905Y-127740000D01*
X154384524Y-127787619D01*
X154432143Y-127882857D01*
X154432143Y-127978095D01*
X154384524Y-128120952D01*
X153813095Y-128692381D01*
X154432143Y-128692381D01*
X154860714Y-128025714D02*
X154860714Y-129025714D01*
X155336905Y-128549524D02*
X155384524Y-128644762D01*
X155479762Y-128692381D01*
X154860714Y-128549524D02*
X154908333Y-128644762D01*
X155003571Y-128692381D01*
X155194048Y-128692381D01*
X155289286Y-128644762D01*
X155336905Y-128549524D01*
X155336905Y-128025714D01*
X156384524Y-127692381D02*
X155908333Y-127692381D01*
X155860714Y-128168571D01*
X155908333Y-128120952D01*
X156003571Y-128073333D01*
X156241667Y-128073333D01*
X156336905Y-128120952D01*
X156384524Y-128168571D01*
X156432143Y-128263810D01*
X156432143Y-128501905D01*
X156384524Y-128597143D01*
X156336905Y-128644762D01*
X156241667Y-128692381D01*
X156003571Y-128692381D01*
X155908333Y-128644762D01*
X155860714Y-128597143D01*
X157051190Y-127692381D02*
X157146429Y-127692381D01*
X157241667Y-127740000D01*
X157289286Y-127787619D01*
X157336905Y-127882857D01*
X157384524Y-128073333D01*
X157384524Y-128311429D01*
X157336905Y-128501905D01*
X157289286Y-128597143D01*
X157241667Y-128644762D01*
X157146429Y-128692381D01*
X157051190Y-128692381D01*
X156955952Y-128644762D01*
X156908333Y-128597143D01*
X156860714Y-128501905D01*
X156813095Y-128311429D01*
X156813095Y-128073333D01*
X156860714Y-127882857D01*
X156908333Y-127787619D01*
X156955952Y-127740000D01*
X157051190Y-127692381D01*
X157670238Y-127692381D02*
X158003571Y-128692381D01*
X158336905Y-127692381D01*
X155646429Y-129920952D02*
X155646429Y-129159047D01*
X156027381Y-129539999D02*
X155265476Y-129539999D01*
X194902381Y-128301428D02*
X194902381Y-128872857D01*
X194902381Y-128587143D02*
X193902381Y-128587143D01*
X194045238Y-128682381D01*
X194140476Y-128777619D01*
X194188095Y-128872857D01*
X193902381Y-127682381D02*
X193902381Y-127587142D01*
X193950000Y-127491904D01*
X193997619Y-127444285D01*
X194092857Y-127396666D01*
X194283333Y-127349047D01*
X194521429Y-127349047D01*
X194711905Y-127396666D01*
X194807143Y-127444285D01*
X194854762Y-127491904D01*
X194902381Y-127587142D01*
X194902381Y-127682381D01*
X194854762Y-127777619D01*
X194807143Y-127825238D01*
X194711905Y-127872857D01*
X194521429Y-127920476D01*
X194283333Y-127920476D01*
X194092857Y-127872857D01*
X193997619Y-127825238D01*
X193950000Y-127777619D01*
X193902381Y-127682381D01*
X193902381Y-126730000D02*
X193902381Y-126634761D01*
X193950000Y-126539523D01*
X193997619Y-126491904D01*
X194092857Y-126444285D01*
X194283333Y-126396666D01*
X194521429Y-126396666D01*
X194711905Y-126444285D01*
X194807143Y-126491904D01*
X194854762Y-126539523D01*
X194902381Y-126634761D01*
X194902381Y-126730000D01*
X194854762Y-126825238D01*
X194807143Y-126872857D01*
X194711905Y-126920476D01*
X194521429Y-126968095D01*
X194283333Y-126968095D01*
X194092857Y-126920476D01*
X193997619Y-126872857D01*
X193950000Y-126825238D01*
X193902381Y-126730000D01*
X194235714Y-125968095D02*
X195235714Y-125968095D01*
X194759524Y-125491904D02*
X194854762Y-125444285D01*
X194902381Y-125349047D01*
X194759524Y-125968095D02*
X194854762Y-125920476D01*
X194902381Y-125825238D01*
X194902381Y-125634761D01*
X194854762Y-125539523D01*
X194759524Y-125491904D01*
X194235714Y-125491904D01*
X193902381Y-124444285D02*
X193902381Y-124920476D01*
X194378571Y-124968095D01*
X194330952Y-124920476D01*
X194283333Y-124825238D01*
X194283333Y-124587142D01*
X194330952Y-124491904D01*
X194378571Y-124444285D01*
X194473810Y-124396666D01*
X194711905Y-124396666D01*
X194807143Y-124444285D01*
X194854762Y-124491904D01*
X194902381Y-124587142D01*
X194902381Y-124825238D01*
X194854762Y-124920476D01*
X194807143Y-124968095D01*
X193902381Y-123777619D02*
X193902381Y-123682380D01*
X193950000Y-123587142D01*
X193997619Y-123539523D01*
X194092857Y-123491904D01*
X194283333Y-123444285D01*
X194521429Y-123444285D01*
X194711905Y-123491904D01*
X194807143Y-123539523D01*
X194854762Y-123587142D01*
X194902381Y-123682380D01*
X194902381Y-123777619D01*
X194854762Y-123872857D01*
X194807143Y-123920476D01*
X194711905Y-123968095D01*
X194521429Y-124015714D01*
X194283333Y-124015714D01*
X194092857Y-123968095D01*
X193997619Y-123920476D01*
X193950000Y-123872857D01*
X193902381Y-123777619D01*
X193902381Y-123158571D02*
X194902381Y-122825238D01*
X193902381Y-122491904D01*
X196469048Y-125801429D02*
X197230953Y-125801429D01*
X196850001Y-126182381D02*
X196850001Y-125420476D01*
X194902381Y-91471428D02*
X194902381Y-92042857D01*
X194902381Y-91757143D02*
X193902381Y-91757143D01*
X194045238Y-91852381D01*
X194140476Y-91947619D01*
X194188095Y-92042857D01*
X193902381Y-90852381D02*
X193902381Y-90757142D01*
X193950000Y-90661904D01*
X193997619Y-90614285D01*
X194092857Y-90566666D01*
X194283333Y-90519047D01*
X194521429Y-90519047D01*
X194711905Y-90566666D01*
X194807143Y-90614285D01*
X194854762Y-90661904D01*
X194902381Y-90757142D01*
X194902381Y-90852381D01*
X194854762Y-90947619D01*
X194807143Y-90995238D01*
X194711905Y-91042857D01*
X194521429Y-91090476D01*
X194283333Y-91090476D01*
X194092857Y-91042857D01*
X193997619Y-90995238D01*
X193950000Y-90947619D01*
X193902381Y-90852381D01*
X193902381Y-89900000D02*
X193902381Y-89804761D01*
X193950000Y-89709523D01*
X193997619Y-89661904D01*
X194092857Y-89614285D01*
X194283333Y-89566666D01*
X194521429Y-89566666D01*
X194711905Y-89614285D01*
X194807143Y-89661904D01*
X194854762Y-89709523D01*
X194902381Y-89804761D01*
X194902381Y-89900000D01*
X194854762Y-89995238D01*
X194807143Y-90042857D01*
X194711905Y-90090476D01*
X194521429Y-90138095D01*
X194283333Y-90138095D01*
X194092857Y-90090476D01*
X193997619Y-90042857D01*
X193950000Y-89995238D01*
X193902381Y-89900000D01*
X194235714Y-89138095D02*
X195235714Y-89138095D01*
X194759524Y-88661904D02*
X194854762Y-88614285D01*
X194902381Y-88519047D01*
X194759524Y-89138095D02*
X194854762Y-89090476D01*
X194902381Y-88995238D01*
X194902381Y-88804761D01*
X194854762Y-88709523D01*
X194759524Y-88661904D01*
X194235714Y-88661904D01*
X193902381Y-87614285D02*
X193902381Y-88090476D01*
X194378571Y-88138095D01*
X194330952Y-88090476D01*
X194283333Y-87995238D01*
X194283333Y-87757142D01*
X194330952Y-87661904D01*
X194378571Y-87614285D01*
X194473810Y-87566666D01*
X194711905Y-87566666D01*
X194807143Y-87614285D01*
X194854762Y-87661904D01*
X194902381Y-87757142D01*
X194902381Y-87995238D01*
X194854762Y-88090476D01*
X194807143Y-88138095D01*
X193902381Y-86947619D02*
X193902381Y-86852380D01*
X193950000Y-86757142D01*
X193997619Y-86709523D01*
X194092857Y-86661904D01*
X194283333Y-86614285D01*
X194521429Y-86614285D01*
X194711905Y-86661904D01*
X194807143Y-86709523D01*
X194854762Y-86757142D01*
X194902381Y-86852380D01*
X194902381Y-86947619D01*
X194854762Y-87042857D01*
X194807143Y-87090476D01*
X194711905Y-87138095D01*
X194521429Y-87185714D01*
X194283333Y-87185714D01*
X194092857Y-87138095D01*
X193997619Y-87090476D01*
X193950000Y-87042857D01*
X193902381Y-86947619D01*
X193902381Y-86328571D02*
X194902381Y-85995238D01*
X193902381Y-85661904D01*
X196469048Y-88971429D02*
X197230953Y-88971429D01*
X196850001Y-89352381D02*
X196850001Y-88590476D01*
X194622381Y-52101428D02*
X194622381Y-52672857D01*
X194622381Y-52387143D02*
X193622381Y-52387143D01*
X193765238Y-52482381D01*
X193860476Y-52577619D01*
X193908095Y-52672857D01*
X193622381Y-51482381D02*
X193622381Y-51387142D01*
X193670000Y-51291904D01*
X193717619Y-51244285D01*
X193812857Y-51196666D01*
X194003333Y-51149047D01*
X194241429Y-51149047D01*
X194431905Y-51196666D01*
X194527143Y-51244285D01*
X194574762Y-51291904D01*
X194622381Y-51387142D01*
X194622381Y-51482381D01*
X194574762Y-51577619D01*
X194527143Y-51625238D01*
X194431905Y-51672857D01*
X194241429Y-51720476D01*
X194003333Y-51720476D01*
X193812857Y-51672857D01*
X193717619Y-51625238D01*
X193670000Y-51577619D01*
X193622381Y-51482381D01*
X193622381Y-50530000D02*
X193622381Y-50434761D01*
X193670000Y-50339523D01*
X193717619Y-50291904D01*
X193812857Y-50244285D01*
X194003333Y-50196666D01*
X194241429Y-50196666D01*
X194431905Y-50244285D01*
X194527143Y-50291904D01*
X194574762Y-50339523D01*
X194622381Y-50434761D01*
X194622381Y-50530000D01*
X194574762Y-50625238D01*
X194527143Y-50672857D01*
X194431905Y-50720476D01*
X194241429Y-50768095D01*
X194003333Y-50768095D01*
X193812857Y-50720476D01*
X193717619Y-50672857D01*
X193670000Y-50625238D01*
X193622381Y-50530000D01*
X193955714Y-49768095D02*
X194955714Y-49768095D01*
X194479524Y-49291904D02*
X194574762Y-49244285D01*
X194622381Y-49149047D01*
X194479524Y-49768095D02*
X194574762Y-49720476D01*
X194622381Y-49625238D01*
X194622381Y-49434761D01*
X194574762Y-49339523D01*
X194479524Y-49291904D01*
X193955714Y-49291904D01*
X193622381Y-48244285D02*
X193622381Y-48720476D01*
X194098571Y-48768095D01*
X194050952Y-48720476D01*
X194003333Y-48625238D01*
X194003333Y-48387142D01*
X194050952Y-48291904D01*
X194098571Y-48244285D01*
X194193810Y-48196666D01*
X194431905Y-48196666D01*
X194527143Y-48244285D01*
X194574762Y-48291904D01*
X194622381Y-48387142D01*
X194622381Y-48625238D01*
X194574762Y-48720476D01*
X194527143Y-48768095D01*
X193622381Y-47577619D02*
X193622381Y-47482380D01*
X193670000Y-47387142D01*
X193717619Y-47339523D01*
X193812857Y-47291904D01*
X194003333Y-47244285D01*
X194241429Y-47244285D01*
X194431905Y-47291904D01*
X194527143Y-47339523D01*
X194574762Y-47387142D01*
X194622381Y-47482380D01*
X194622381Y-47577619D01*
X194574762Y-47672857D01*
X194527143Y-47720476D01*
X194431905Y-47768095D01*
X194241429Y-47815714D01*
X194003333Y-47815714D01*
X193812857Y-47768095D01*
X193717619Y-47720476D01*
X193670000Y-47672857D01*
X193622381Y-47577619D01*
X193622381Y-46958571D02*
X194622381Y-46625238D01*
X193622381Y-46291904D01*
X191389048Y-49601429D02*
X192150953Y-49601429D01*
X191770001Y-49982381D02*
X191770001Y-49220476D01*
M02*
